<svg width="90" height="80" viewBox="0 0 90 80" fill="none" xmlns="http://www.w3.org/2000/svg">
<path d="M9.01087 32.825C7.97509 39.4604 9.48802 46.2188 13.2919 51.9487C17.0957 57.6786 22.9552 62.0255 29.8718 64.2487C36.7884 66.4719 44.3343 66.4339 51.2237 64.1411C58.113 61.8483 63.9197 57.4426 67.6542 51.6747C71.3887 45.9068 72.82 39.1335 71.7043 32.509C70.5885 25.8845 66.9947 19.8186 61.5352 15.3449C56.0758 10.8712 49.0884 8.2664 41.7636 7.97444C34.4389 7.68248 27.23 9.72137 21.3653 13.7437L40.3832 36.9179L9.01087 32.825Z" fill="#FFB000" fill-opacity="0.17"/>
<path d="M65.878 18.8536C65.41 19.1298 63.8056 20.0664 57.7444 23.6445C47.1596 29.9003 43.6834 32.0015 43.5385 32.2417C43.3937 32.4818 43.3603 33.5985 43.3157 40.6707L43.26 48.8356L42.6472 49.0638C41.6556 49.424 40.2517 50.2164 39.2601 50.9729C34.8033 54.395 32.4078 60.1944 33.0652 65.9699C33.288 67.9151 34.1014 70.6287 34.6808 71.3611C34.8925 71.6133 35.0373 71.6733 35.4607 71.6733C35.8952 71.6733 36.0289 71.6133 36.2518 71.3371C36.6083 70.8809 36.5972 70.3525 36.1961 69.3319C34.5248 65.1054 34.9593 60.3265 37.3548 56.4242C37.9342 55.4756 39.3826 53.8666 40.2963 53.1342C45.9229 48.6315 53.9896 50.0243 58.0452 56.184C61.1761 60.9389 61.1204 67.4348 57.9004 72.1056C57.1985 73.1262 55.7166 74.6631 54.7918 75.3115C51.2041 77.857 46.7585 78.3133 42.87 76.5242C41.923 76.092 41.4327 76.08 41.0093 76.4642C40.7531 76.7044 40.6974 76.8484 40.6974 77.3167C40.6974 78.0251 40.9425 78.2653 42.157 78.8176C44.6973 79.9583 47.9619 80.3065 50.6136 79.7182C54.9812 78.7576 58.7695 75.7438 60.8418 71.6013C61.0981 71.085 61.3655 70.6527 61.4212 70.6527C61.4881 70.6527 62.5911 71.2771 63.8724 72.0456C65.1649 72.814 66.3682 73.4624 66.5576 73.4984C66.8584 73.5465 67.9615 72.9341 74.4683 69.0918C78.6354 66.6303 83.7161 63.6165 85.7662 62.4038C87.8163 61.203 89.6101 60.0624 89.755 59.8943C90.0001 59.5941 90.0001 59.5821 90.0001 55.1034C90.0001 50.2765 89.9889 50.1204 89.4319 49.8082C89.0419 49.5921 88.7299 49.5921 88.3399 49.8082C87.794 50.1204 87.7717 50.3125 87.7717 54.539V58.4774L78.5017 63.9647C73.3987 66.9785 68.9085 69.6441 68.5297 69.8722L67.8278 70.2925V58.4894L67.8389 46.6983L71.0478 44.8012C72.8193 43.7686 74.3012 42.9161 74.3346 42.9161C74.3681 42.9161 74.4015 44.3449 74.4015 46.098C74.4015 49.5681 74.4349 49.8202 75.0143 50.0964C75.1703 50.1804 75.4154 50.2405 75.5491 50.2405C75.8276 50.2285 80.6855 47.3827 81.042 47.0105C81.1757 46.8784 81.3094 46.5903 81.354 46.3862C81.3874 46.182 81.4209 44.3569 81.4209 42.3277L81.432 38.6535L84.496 36.8524C86.1784 35.8558 87.6046 35.0273 87.6603 35.0153C87.7271 34.9913 87.7717 36.156 87.7717 38.2333C87.7717 41.7634 87.8051 42.0155 88.3845 42.2917C88.7633 42.4838 89.053 42.4718 89.4319 42.2677C89.9889 41.9555 90.0001 41.7994 90.0001 36.9605V32.4458L89.6993 32.1216C89.2759 31.6893 67.0256 18.5414 66.6913 18.5414C66.5465 18.5414 66.1788 18.6855 65.878 18.8536ZM76.6299 27.0065C82.0448 30.2124 86.4904 32.854 86.5127 32.866C86.5461 32.9141 80.5629 36.4682 80.3512 36.5282C80.2844 36.5522 76.9975 34.6551 73.0533 32.3137C69.1091 29.9843 64.6635 27.3547 63.1705 26.4662C61.6775 25.5897 60.5076 24.8212 60.5522 24.7732C60.7193 24.6051 66.5465 21.183 66.669 21.183C66.7359 21.183 71.2261 23.8006 76.6299 27.0065ZM67.9949 32.0616C73.421 35.2795 77.8555 37.9331 77.8555 37.9811C77.8555 38.0171 77.3207 38.3653 76.6744 38.7496L75.5045 39.446L65.5994 33.5865C60.1399 30.3685 55.6832 27.7029 55.6832 27.6669C55.6832 27.5949 57.9227 26.2501 58.0452 26.2381C58.1009 26.226 62.5688 28.8556 67.9949 32.0616ZM62.9365 34.7512C68.1063 37.801 72.5297 40.4186 72.7525 40.5627L73.1647 40.8268L70.0339 42.6759C68.3069 43.6965 66.825 44.549 66.747 44.5731C66.6356 44.6091 50.8142 35.3515 47.2265 33.1542L46.7808 32.878L49.9228 31.0049C51.7501 29.9123 53.1651 29.1438 53.2988 29.1558C53.4325 29.1798 57.7667 31.6893 62.9365 34.7512ZM55.6609 40.8868C61.0313 44.0688 65.4657 46.6983 65.5214 46.7464C65.566 46.7944 65.5883 52.1016 65.5771 58.5495L65.5437 70.2805L63.839 69.2959L62.1343 68.3113L62.2012 67.8911C62.58 65.3695 62.6134 64.9853 62.5577 63.4484C62.502 61.7194 62.3014 60.4586 61.8558 59.0177C60.385 54.2749 56.8419 50.4566 52.4409 48.8716C50.7919 48.2833 49.8783 48.1392 47.6276 48.1392H45.5441V41.5472C45.5441 35.6037 45.5664 34.9673 45.7223 35.0393C45.8115 35.0754 50.2905 37.7049 55.6609 40.8868ZM79.1702 42.82L79.1368 45.4856L78.4683 45.8939C78.1006 46.11 77.5323 46.4582 77.2204 46.6503L76.6299 46.9985V44.2609V41.5112L77.7775 40.8388C78.4014 40.4666 78.9808 40.1544 79.0588 40.1544C79.1702 40.1544 79.1925 40.7308 79.1702 42.82Z" fill="black"/>
<path d="M88.3398 45.0053C87.6824 45.4015 87.5933 46.23 88.1504 46.8304C88.7075 47.4308 89.4317 47.3467 89.8105 46.6383C90.3899 45.5817 89.3426 44.4049 88.3398 45.0053Z" fill="black"/>
<path d="M42.0236 58.7897C41.1434 59.7262 40.3857 60.6268 40.33 60.7949C40.1406 61.4072 40.3635 61.7795 41.979 63.5085C43.5278 65.1775 43.55 65.1895 44.0514 65.1895C44.7088 65.1895 45.0988 64.7572 45.0988 64.0368C45.0988 63.6286 45.0208 63.4605 44.5751 62.9562L44.0514 62.3558L47.7839 62.3918L51.5276 62.4278L52.0624 62.7881C53.522 63.7606 53.9342 65.5257 53.0763 67.0986C52.9203 67.3988 52.6084 67.7831 52.3967 67.9632C51.717 68.5155 51.1822 68.6116 48.6419 68.6116H46.3021L45.979 68.9598C45.4442 69.5481 45.5556 70.4607 46.2129 70.8329C46.6809 71.097 50.9037 71.097 51.8396 70.8329C53.8674 70.2565 55.3381 68.5395 55.6835 66.3182C56.118 63.5685 54.3242 60.7348 51.7727 60.0984C51.4942 60.0264 49.7003 59.9664 47.6725 59.9664H44.0626L44.5862 59.366C45.0208 58.8617 45.0988 58.7056 45.0988 58.2854C45.0988 57.613 44.6308 57.0846 44.0291 57.0846C43.6392 57.0846 43.4943 57.2047 42.0236 58.7897Z" fill="black"/>
<path d="M37.5332 73.4623C36.8758 73.8586 36.7867 74.6871 37.3437 75.2874C37.9008 75.8878 38.6919 75.7917 39.0373 75.0833C39.5498 73.9907 38.5136 72.874 37.5332 73.4623Z" fill="black"/>
</svg>
