<svg width="110" height="100" viewBox="0 0 110 100" fill="none" xmlns="http://www.w3.org/2000/svg">
<path d="M10.7111 41.0311C9.47988 49.3253 11.2784 57.7733 15.8001 64.9357C20.3219 72.0981 27.2872 77.5317 35.5092 80.3107C43.7313 83.0897 52.7013 83.0422 60.891 80.1762C69.0806 77.3102 75.9832 71.8031 80.4225 64.5932C84.8618 57.3833 86.5633 48.9167 85.237 40.6361C83.9106 32.3555 79.6386 24.7731 73.1487 19.1809C66.6588 13.5888 58.3526 10.3328 49.6455 9.96787C40.9383 9.60291 32.3689 12.1515 25.3973 17.1795L48.0045 46.1472L10.7111 41.0311Z" fill="#FFB000" fill-opacity="0.17"/>
<path d="M59.6975 23.5443C58.7041 24.0751 57.5519 25.5439 57.0751 26.9242C56.7307 27.9151 56.691 28.2336 56.691 29.7201C56.691 31.1711 56.744 31.5428 57.0353 32.3922C57.6313 34.0733 58.6909 35.4004 61.4193 37.8779C62.1609 38.5503 62.7437 39.0989 62.704 39.0989C62.6775 39.0989 61.0087 38.2141 59.0088 37.1523C57.0089 36.0729 55.2341 35.2058 55.0619 35.2058C54.307 35.2058 53.8434 36.6922 54.3467 37.4708C54.4792 37.7009 56.4393 38.8334 59.1412 40.2845L63.7105 42.7265L55.8698 42.815C48.2278 42.9035 48.0291 42.9035 47.6583 43.2751C47.4596 43.4697 47.155 43.9829 46.9961 44.4076L46.6914 45.1862V58.4757C46.6914 72.9686 46.665 72.3315 47.4331 72.7209C47.804 72.9155 48.3735 72.6855 48.6251 72.2254C48.7708 71.9776 48.7973 69.2879 48.8106 58.7766V45.6463H69.2732H89.7359V58.7058C89.7359 70.385 89.7623 71.8007 89.9478 72.1546C90.2391 72.7209 90.7027 72.9155 91.1663 72.7032C91.6563 72.4731 91.8417 71.9953 91.8815 70.7743L91.9212 69.801H98.3447C101.881 69.801 104.98 69.8541 105.245 69.9426C105.96 70.1373 106.914 71.0751 107.285 71.9068C107.47 72.3315 107.616 72.7562 107.616 72.8624C107.616 73.0217 107.086 73.0748 105.788 73.0748C103.338 73.0748 103.378 73.0217 103.378 76.1892C103.378 78.3127 103.404 78.5605 103.722 79.4099C104.344 81.0733 105.483 81.9227 107.113 81.9227H107.881V85.0194V88.1162H106.49H105.099L104.914 87.4968C104.411 85.9042 103.099 84.0108 101.921 83.1791C99.9473 81.7811 97.5236 81.7811 95.5369 83.1968C94.5701 83.8869 93.2059 85.7803 92.7159 87.1252C92.4642 87.7977 92.2788 88.1162 92.1066 88.1162C91.8682 88.1162 91.855 87.8861 91.855 82.542V76.9501L91.5239 76.5254C91.1398 75.9946 90.5438 75.9592 90.1199 76.4193L89.8021 76.7555L89.7623 82.4358L89.7226 88.1162H78.743H67.7633L67.2733 86.8775C66.1608 84.0462 63.7635 82.0996 61.406 82.0996C58.9425 82.0996 56.5453 84.0285 55.4328 86.9306L54.9692 88.1162H51.8965H48.8106V86.5236V84.9309H51.327C53.8302 84.9309 53.8567 84.9309 54.1746 84.4886C54.6116 83.9223 54.6116 83.1083 54.1746 82.542L53.8567 82.0996H48.347H42.8373L42.5195 82.542C42.0824 83.1083 42.0824 83.9223 42.5195 84.4886C42.8241 84.9133 42.8903 84.9309 44.771 84.9309H46.6914V86.7536C46.6914 88.9833 46.9696 89.9035 47.8172 90.5405C48.3205 90.9298 48.4794 90.9475 51.4727 90.9475H54.5851L54.7308 92.2747C54.903 93.9027 55.5652 95.8316 56.3731 97.0349C58.5452 100.309 62.3729 100.963 65.088 98.539C66.8097 96.9995 67.7369 94.876 68.0812 91.6023L68.1607 90.9475H80.0542H91.9344L92.0934 92.3101C92.5039 95.7431 94.3184 98.6275 96.7157 99.6185C97.8812 100.096 99.603 100.096 100.755 99.6185C103.166 98.6275 104.993 95.7431 105.391 92.3101L105.55 90.9475H107.444C109.285 90.9475 109.364 90.9298 109.669 90.5051L110 90.0804V81.7988C110 75.3575 109.96 73.3225 109.814 72.6147C109.298 69.9957 107.709 67.8545 105.854 67.2352L105.258 67.0228L104.397 62.4042L103.537 57.8033L103.934 57.2901L104.331 56.7946L104.278 54.972C104.239 53.6271 104.159 52.9547 103.947 52.3353C103.55 51.1674 102.689 49.9818 101.802 49.4155L101.06 48.92L96.464 48.8669L91.8815 48.8138L91.8285 46.7081C91.7887 44.443 91.6828 44.0714 90.8749 43.2751C90.5173 42.9035 90.3319 42.9035 82.6898 42.815L74.8624 42.7265L79.4317 40.2845C81.9481 38.9396 84.1202 37.6832 84.2527 37.4885C84.7692 36.7276 84.2924 35.2058 83.5242 35.2058C83.3388 35.2058 81.8422 35.9313 80.1999 36.8161C78.5576 37.7009 76.9417 38.568 76.5974 38.7626C76.2398 38.9396 75.9616 39.0635 75.9616 39.0281C75.9616 38.9927 76.3987 38.5857 76.9285 38.1256C79.4317 35.8959 81.0608 33.8963 81.5376 32.4806C82.6368 29.1184 81.5905 25.2608 79.1668 23.7389C78.5046 23.3142 78.2529 23.2611 77.0212 23.2611C75.6835 23.2611 75.5908 23.2788 74.7961 23.8628C74.3326 24.199 73.7101 24.8538 73.4055 25.2961C72.5048 26.641 71.2864 30.2156 69.9222 35.4889L69.2997 37.8955L68.611 35.2589C66.5978 27.5435 65.4853 24.9422 63.6443 23.7389C62.6377 23.0842 60.757 22.978 59.6975 23.5443ZM63.141 26.6233C63.843 27.2958 64.5449 28.9946 65.6177 32.6399C66.4654 35.5597 67.4057 39.2581 67.3263 39.3643C67.2468 39.4705 64.6641 37.3647 62.6775 35.5774C60.4392 33.5601 59.2339 32.0913 58.9293 31.0473C58.426 29.26 58.969 27.2781 60.2008 26.3933C60.7041 26.0394 60.9425 25.9863 61.6841 26.0394C62.4126 26.0925 62.6775 26.1986 63.141 26.6233ZM78.3192 26.3402C79.2992 27.0126 79.8423 28.2336 79.8423 29.7378C79.8423 31.5958 78.9946 32.8346 75.763 35.7367C73.9352 37.3824 71.3128 39.5059 71.2466 39.3997C71.1009 39.205 73.4187 30.8526 74.2001 28.7822C74.5975 27.7205 75.3789 26.5525 75.8954 26.2517C76.5047 25.8978 77.7364 25.9509 78.3192 26.3402ZM100.768 51.9106C101.523 52.3353 102.186 53.5563 102.186 54.5119C102.186 54.8304 102.04 54.8481 97.0203 54.8481H91.855V53.2555V51.6629H96.0932C99.4043 51.6629 100.437 51.716 100.768 51.9106ZM102.146 62.0149C102.596 64.3507 102.967 66.4035 102.967 66.5627C102.98 66.8635 102.636 66.8812 97.4176 66.8812H91.855V62.2803V57.6794L96.5965 57.7148L101.325 57.7679L102.146 62.0149ZM107.881 77.4987V79.0913H107.073C106.358 79.0913 106.225 79.0383 105.881 78.5782C105.536 78.1181 105.497 77.9411 105.497 76.9855V75.9061H106.689H107.881V77.4987ZM63.3132 85.5326C66.2402 87.3199 66.8362 92.7171 64.4257 95.6192C63.4589 96.7871 62.5318 97.1941 61.1279 97.1056C59.7107 96.9995 58.9293 96.5217 57.9757 95.106C55.2341 91.1068 57.5519 84.6832 61.6179 85.0017C62.2669 85.0548 62.8232 85.2318 63.3132 85.5326ZM100.676 85.5326C102.914 86.9129 103.947 90.5582 102.927 93.5665C101.643 97.3357 97.9871 98.3444 95.6826 95.5838C93.9476 93.5134 93.6695 90.1866 95.0071 87.603C96.2654 85.1433 98.6229 84.2762 100.676 85.5326Z" fill="black"/>
<path d="M60.6511 88.3109C60.0948 88.5233 59.3267 89.6735 59.2207 90.4698C59.0353 91.7616 59.5386 93.1242 60.3862 93.6727C61.8563 94.6106 63.5119 93.2127 63.5119 91.0361C63.5119 89.8681 63.1278 89.0541 62.3199 88.5056C61.6974 88.0986 61.3266 88.0455 60.6511 88.3109Z" fill="black"/>
<path d="M97.8154 88.5055C97.4975 88.7356 97.1267 89.1249 96.981 89.3726C96.4644 90.3282 96.4644 91.7792 96.9942 92.841C97.2724 93.4426 98.1068 93.9558 98.7425 93.9558C101.087 93.9558 101.749 89.7442 99.6166 88.4524C98.9014 88.0277 98.5173 88.0277 97.8154 88.5055Z" fill="black"/>
<path d="M53.9232 55.2197L53.5789 55.5736V62.298C53.5789 68.7747 53.5921 69.0224 53.8437 69.3586C54.1219 69.7302 54.7576 69.8187 55.1682 69.5356C55.5655 69.2525 55.698 68.3677 55.698 65.9787V63.696H57.0754C58.4131 63.696 58.4661 63.6783 58.7309 63.2359C59.0091 62.7581 59.0753 62.1918 58.9296 61.661C58.7707 61.1124 58.1482 60.8647 56.89 60.8647H55.698V59.272V57.6794H57.5919C59.5521 57.6617 59.7508 57.6086 60.0421 56.8477C60.2805 56.2461 60.2276 55.9275 59.817 55.3613L59.4329 54.8481H56.8502C54.453 54.8481 54.2543 54.8658 53.9232 55.2197Z" fill="black"/>
<path d="M61.8301 55.2728L61.4592 55.6975V62.3688V69.0401L61.7771 69.3763C62.1877 69.8187 62.9029 69.8187 63.2472 69.3586C63.4724 69.0578 63.5121 68.7747 63.5121 67.1466V65.2886H64.4392H65.3531L66.4524 67.4475C67.5119 69.5533 67.5649 69.6241 68.0682 69.6771C68.4523 69.7302 68.651 69.6418 68.8894 69.3409C69.4059 68.7039 69.2999 68.1199 68.3596 66.2265L67.4987 64.5277L68.1477 63.5721C69.631 61.4132 69.5781 58.4934 68.0285 56.4407C67.0086 55.0781 66.4126 54.8481 64.0286 54.8481C62.2936 54.8481 62.1877 54.8658 61.8301 55.2728ZM66.1478 57.9979C67.406 58.9004 67.3662 61.2716 66.0948 62.1033C65.6445 62.4042 65.3266 62.4573 64.5452 62.4219L63.5783 62.3688L63.5386 60.0152L63.4989 57.6794H64.5982C65.4193 57.6794 65.8166 57.7679 66.1478 57.9979Z" fill="black"/>
<path d="M70.8628 55.2905L70.5317 55.7152V62.3334V68.9516L70.8364 69.3232C71.1277 69.6948 71.2602 69.7125 73.8693 69.7125H76.6109L76.8758 69.2524C77.2467 68.6331 77.2202 68.0668 76.8361 67.4652C76.5182 66.9697 76.5182 66.9697 74.5845 66.9166L72.6508 66.8458V65.2709V63.696H74.015C75.2732 63.696 75.4057 63.6606 75.6706 63.289C76.0282 62.7758 76.0414 61.9264 75.7103 61.3778C75.4719 60.9885 75.3395 60.9531 74.0548 60.9L72.6508 60.8292V59.2543V57.6794H74.5713C76.452 57.6794 76.5182 57.6617 76.8228 57.237C77.0348 56.9716 77.154 56.5999 77.154 56.2637C77.154 55.9275 77.0348 55.5559 76.8228 55.2905C76.505 54.8481 76.4917 54.8481 73.8428 54.8481C71.194 54.8481 71.1807 54.8481 70.8628 55.2905Z" fill="black"/>
<path d="M78.8226 55.2197L78.4783 55.5736V62.298C78.4783 68.7746 78.4915 69.0224 78.7432 69.3586C78.9948 69.6948 79.1802 69.7125 81.7761 69.7125H84.5575L84.8224 69.2524C85.1932 68.6331 85.1667 68.0668 84.7826 67.4652C84.4648 66.9697 84.4648 66.9697 82.5311 66.9166L80.5974 66.8458V65.2709V63.696H81.3788C82.2927 63.696 82.6768 63.3774 82.796 62.5103C82.8622 62.0326 82.8092 61.8556 82.4781 61.3955C82.1205 60.9354 81.988 60.8646 81.3391 60.8646H80.5974V59.272V57.6794H82.4648C83.4847 57.6794 84.425 57.6086 84.5575 57.5024C84.9548 57.237 85.1667 56.3522 84.9813 55.7506C84.7164 54.9365 84.3853 54.8481 81.6702 54.8481C79.3524 54.8481 79.1537 54.8658 78.8226 55.2197Z" fill="black"/>
<path d="M44.7713 76.5254C44.3342 77.1093 44.3474 77.7641 44.8242 78.4011L45.2083 78.9143H52.3206H59.4328L59.8169 78.4011C60.0288 78.118 60.201 77.7464 60.201 77.5871C60.201 77.1624 59.8434 76.313 59.605 76.1892C59.4858 76.1361 56.1747 76.083 52.2411 76.083H45.0891L44.7713 76.5254Z" fill="black"/>
<path d="M69.7763 82.4535C69.6174 82.6305 69.4585 82.9667 69.4055 83.1613C69.273 83.6922 69.5644 84.4885 69.9485 84.7363C70.1869 84.8778 72.6636 84.9309 78.4912 84.9309H86.7027L87.0206 84.4885C87.2325 84.2231 87.3517 83.8515 87.3517 83.5152C87.3517 83.179 87.2325 82.8074 87.0206 82.542L86.7027 82.0996H78.372C70.2796 82.0996 70.0412 82.1173 69.7763 82.4535Z" fill="black"/>
</svg>
