<svg width="90" height="80" viewBox="0 0 90 80" fill="none" xmlns="http://www.w3.org/2000/svg">
<path d="M8.76355 32.8249C7.75615 39.4603 9.22763 46.2187 12.9273 51.9486C16.6269 57.6785 22.3258 62.0254 29.0529 64.2486C35.78 66.4718 43.1191 66.4338 49.8198 64.141C56.5204 61.8482 62.1679 57.4425 65.8001 51.6746C69.4323 45.9067 70.8244 39.1334 69.7392 32.5089C68.654 25.8844 65.1587 19.8185 59.8488 15.3448C54.5389 10.871 47.743 8.26628 40.6189 7.97432C33.4949 7.68235 26.4835 9.72125 20.7795 13.7436L39.2763 36.9178L8.76355 32.8249Z" fill="#FFB000" fill-opacity="0.17"/>
<path d="M48.8435 18.8354C48.0307 19.2601 47.088 20.4351 46.6979 21.5393C46.4161 22.3321 46.3836 22.5869 46.3836 23.7761C46.3836 24.9369 46.427 25.2342 46.6654 25.9137C47.153 27.2586 48.0199 28.3204 50.2522 30.3023C50.859 30.8402 51.3358 31.2791 51.3033 31.2791C51.2816 31.2791 49.9163 30.5713 48.28 29.7219C46.6437 28.8583 45.1916 28.1646 45.0507 28.1646C44.4331 28.1646 44.0538 29.3538 44.4656 29.9767C44.5739 30.1607 46.1777 31.0667 48.3883 32.2276L52.1269 34.1812L45.7118 34.252C39.4592 34.3228 39.2966 34.3228 38.9932 34.6201C38.8307 34.7758 38.5814 35.1863 38.4514 35.5261L38.2022 36.149V46.7806C38.2022 58.3749 38.1805 57.8652 38.809 58.1767C39.1124 58.3324 39.5784 58.1484 39.7843 57.7803C39.9035 57.5821 39.9251 55.4303 39.936 47.0213V36.517H56.6781H73.4203V46.9646C73.4203 56.308 73.442 57.4405 73.5937 57.7237C73.8321 58.1767 74.2114 58.3324 74.5906 58.1625C74.9916 57.9785 75.1433 57.5963 75.1758 56.6195L75.2083 55.8408H80.4639C83.3572 55.8408 85.893 55.8833 86.1097 55.9541C86.6948 56.1098 87.4751 56.8601 87.7785 57.5255C87.9302 57.8652 88.0494 58.205 88.0494 58.2899C88.0494 58.4173 87.6159 58.4598 86.554 58.4598C84.5492 58.4598 84.5818 58.4173 84.5818 60.9514C84.5818 62.6502 84.6034 62.8484 84.8635 63.5279C85.3728 64.8586 86.3047 65.5381 87.6376 65.5381H88.2661V68.0155V70.493H87.1283H85.9905L85.8388 69.9975C85.427 68.7234 84.3542 67.2086 83.3898 66.5433C81.7751 65.4249 79.7921 65.4249 78.1666 66.5574C77.3756 67.1095 76.2594 68.6243 75.8585 69.7002C75.6526 70.2381 75.5009 70.493 75.36 70.493C75.165 70.493 75.1541 70.3089 75.1541 66.0336V61.5601L74.8832 61.2204C74.569 60.7957 74.0813 60.7673 73.7346 61.1354L73.4745 61.4044L73.442 65.9487L73.4095 70.493H64.4261H55.4428L55.0419 69.502C54.1316 67.2369 52.1702 65.6797 50.2413 65.6797C48.2258 65.6797 46.2644 67.2228 45.3542 69.5445L44.9749 70.493H42.4608H39.936V69.2189V67.9448H41.9949C44.043 67.9448 44.0646 67.9448 44.3247 67.5908C44.6823 67.1378 44.6823 66.4866 44.3247 66.0336L44.0646 65.6797H39.5567H35.0488L34.7887 66.0336C34.4311 66.4866 34.4311 67.1378 34.7887 67.5908C35.0379 67.9306 35.0921 67.9448 36.6309 67.9448H38.2022V69.4029C38.2022 71.1866 38.4297 71.9228 39.1232 72.4324C39.535 72.7439 39.6651 72.758 42.1141 72.758H44.6606L44.7798 73.8198C44.9207 75.1222 45.4625 76.6652 46.1235 77.6279C47.9007 80.2469 51.0324 80.7707 53.2539 78.8312C54.6626 77.5996 55.4211 75.9008 55.7029 73.2818L55.7679 72.758H65.4989H75.2191L75.3492 73.8481C75.6851 76.5945 77.1697 78.902 79.1311 79.6948C80.0847 80.077 81.4934 80.077 82.4362 79.6948C84.4084 78.902 85.9038 76.5945 86.2289 73.8481L86.3589 72.758H87.9085C89.4148 72.758 89.4798 72.7439 89.729 72.4041L89.9999 72.0643V65.439C89.9999 60.286 89.9674 58.658 89.8482 58.0917C89.4256 55.9966 88.1252 54.2836 86.6082 53.7881L86.1205 53.6182L85.4162 49.9234L84.7118 46.2426L85.0369 45.8321L85.362 45.4357L85.3186 43.9776C85.2861 42.9017 85.2211 42.3637 85.0477 41.8682C84.7226 40.9339 84.0183 39.9854 83.2922 39.5324L82.6854 39.136L78.9252 39.0935L75.1758 39.0511L75.1325 37.3664C75.0999 35.5544 75.0133 35.2571 74.3522 34.6201C74.0597 34.3228 73.9079 34.3228 67.6554 34.252L61.2511 34.1812L64.9896 32.2276C67.0485 31.1517 68.8257 30.1466 68.9341 29.9908C69.3567 29.3821 68.9666 28.1646 68.3381 28.1646C68.1864 28.1646 66.9618 28.7451 65.6181 29.4529C64.2744 30.1607 62.9524 30.8544 62.6706 31.0101C62.3781 31.1517 62.1505 31.2508 62.1505 31.2225C62.1505 31.1941 62.5081 30.8685 62.9416 30.5005C64.9896 28.7167 66.3225 27.117 66.7126 25.9845C67.612 23.2948 66.756 20.2086 64.7729 18.9911C64.2311 18.6514 64.0252 18.6089 63.0174 18.6089C61.9229 18.6089 61.8471 18.6231 61.1969 19.0902C60.8176 19.3592 60.3083 19.883 60.0591 20.2369C59.3222 21.3128 58.3253 24.1725 57.2091 28.3911L56.6998 30.3164L56.1363 28.2071C54.4892 22.0348 53.5789 19.9538 52.0727 18.9911C51.2491 18.4673 49.7104 18.3824 48.8435 18.8354ZM51.6609 21.2987C52.2352 21.8366 52.8096 23.1957 53.6873 26.1119C54.3808 28.4478 55.1502 31.4065 55.0852 31.4914C55.0202 31.5764 52.9071 29.8917 51.2816 28.4619C49.4503 26.8481 48.4642 25.6731 48.215 24.8378C47.8032 23.408 48.2475 21.8225 49.2552 21.1146C49.667 20.8315 49.8621 20.789 50.4689 20.8315C51.0649 20.874 51.2816 20.9589 51.6609 21.2987ZM64.0794 21.0722C64.8813 21.6101 65.3256 22.5869 65.3256 23.7902C65.3256 25.2767 64.632 26.2676 61.988 28.5893C60.4925 29.9059 58.3469 31.6047 58.2928 31.5198C58.1736 31.364 60.0699 24.6821 60.7093 23.0258C61.0344 22.1764 61.6737 21.242 62.0963 21.0014C62.5948 20.7182 63.6026 20.7607 64.0794 21.0722ZM82.447 41.5285C83.0647 41.8682 83.6065 42.8451 83.6065 43.6095C83.6065 43.8643 83.4873 43.8785 79.3803 43.8785H75.1541V42.6044V41.3303H78.6218C81.3308 41.3303 82.1761 41.3728 82.447 41.5285ZM83.574 49.6119C83.9424 51.4806 84.2458 53.1228 84.2458 53.2502C84.2567 53.4908 83.9749 53.505 79.7054 53.505H75.1541V49.8243V46.1435L79.0335 46.1719L82.9021 46.2143L83.574 49.6119ZM88.2661 61.999V63.2731H87.6051C87.0199 63.2731 86.9116 63.2306 86.6298 62.8625C86.3481 62.4945 86.3156 62.3529 86.3156 61.5884V60.7249H87.2908H88.2661V61.999ZM51.8018 68.4261C54.1966 69.8559 54.6843 74.1737 52.712 76.4954C51.921 77.4297 51.1624 77.7553 50.0138 77.6845C48.8543 77.5996 48.215 77.2174 47.4347 76.0848C45.1916 72.8854 47.088 67.7466 50.4147 68.0014C50.9457 68.0439 51.4008 68.1854 51.8018 68.4261ZM82.3711 68.4261C84.2025 69.5303 85.0477 72.4466 84.2133 74.8532C83.1622 77.8686 80.1714 78.6755 78.2858 76.467C76.8663 74.8107 76.6387 72.1493 77.7332 70.0824C78.7626 68.1146 80.6915 67.421 82.3711 68.4261Z" fill="black"/>
<path d="M49.6236 70.6488C49.1684 70.8186 48.5399 71.7388 48.4532 72.3759C48.3015 73.4093 48.7133 74.4994 49.4068 74.9382C50.6097 75.6885 51.9642 74.5701 51.9642 72.8289C51.9642 71.8945 51.65 71.2433 50.9889 70.8045C50.4796 70.4789 50.1762 70.4364 49.6236 70.6488Z" fill="black"/>
<path d="M80.0308 70.8044C79.7707 70.9885 79.4673 71.2999 79.3481 71.4981C78.9255 72.2626 78.9255 73.4234 79.3589 74.2728C79.5865 74.7541 80.2692 75.1647 80.7893 75.1647C82.7074 75.1647 83.2492 71.7954 81.5045 70.762C80.9194 70.4222 80.6051 70.4222 80.0308 70.8044Z" fill="black"/>
<path d="M44.1189 44.1757L43.8372 44.4589V49.8384C43.8372 55.0197 43.848 55.2179 44.0539 55.4869C44.2814 55.7842 44.8016 55.855 45.1375 55.6284C45.4626 55.4019 45.571 54.6941 45.571 52.783V50.9568H46.698C47.7924 50.9568 47.8358 50.9426 48.0525 50.5887C48.2801 50.2065 48.3342 49.7534 48.215 49.3287C48.085 48.8899 47.5757 48.6917 46.5462 48.6917H45.571V47.4176V46.1435H47.1206C48.7244 46.1293 48.8869 46.0869 49.1253 45.4781C49.3204 44.9968 49.277 44.742 48.9411 44.289L48.6268 43.8784H46.5137C44.5524 43.8784 44.3898 43.8926 44.1189 44.1757Z" fill="black"/>
<path d="M50.5883 44.2182L50.2849 44.558V49.8951V55.2321L50.545 55.5011C50.8809 55.855 51.4661 55.855 51.7478 55.4869C51.932 55.2463 51.9645 55.0198 51.9645 53.7173V52.2309H52.7231H53.4708L54.3702 53.958C55.2371 55.6426 55.2805 55.6993 55.6923 55.7417C56.0065 55.7842 56.1691 55.7134 56.3641 55.4728C56.7867 54.9631 56.7 54.496 55.9307 52.9812L55.2263 51.6222L55.7573 50.8577C56.9709 49.1306 56.9276 46.7948 55.6597 45.1526C54.8253 44.0625 54.3377 43.8785 52.3872 43.8785C50.9676 43.8785 50.8809 43.8926 50.5883 44.2182ZM54.121 46.3984C55.1504 47.1204 55.1179 49.0173 54.0776 49.6827C53.7092 49.9234 53.4491 49.9658 52.8098 49.9375L52.0187 49.8951L51.9862 48.0122L51.9537 46.1435H52.8531C53.525 46.1435 53.8501 46.2143 54.121 46.3984Z" fill="black"/>
<path d="M57.9787 44.2324L57.7078 44.5721V49.8667V55.1613L57.957 55.4586C58.1954 55.7559 58.3038 55.77 60.4385 55.77H62.6817L62.8984 55.4019C63.2018 54.9065 63.1801 54.4535 62.8659 53.9721C62.6058 53.5757 62.6058 53.5757 61.0237 53.5333L59.4416 53.4766V52.2167V50.9568H60.5577C61.5872 50.9568 61.6955 50.9285 61.9123 50.6312C62.2049 50.2206 62.2157 49.5411 61.9448 49.1022C61.7497 48.7908 61.6414 48.7625 60.5902 48.72L59.4416 48.6634V47.4035V46.1435H61.0129C62.5516 46.1435 62.6058 46.1294 62.855 45.7896C63.0284 45.5772 63.1259 45.28 63.1259 45.011C63.1259 44.742 63.0284 44.4447 62.855 44.2324C62.595 43.8785 62.5841 43.8785 60.4169 43.8785C58.2496 43.8785 58.2387 43.8785 57.9787 44.2324Z" fill="black"/>
<path d="M64.4912 44.1757L64.2095 44.4589V49.8384C64.2095 55.0197 64.2203 55.2179 64.4262 55.4869C64.6321 55.7559 64.7838 55.77 66.9077 55.77H69.1834L69.4001 55.4019C69.7035 54.9065 69.6818 54.4535 69.3676 53.9721C69.1075 53.5757 69.1075 53.5757 67.5254 53.5333L65.9433 53.4766V52.2167V50.9568H66.5826C67.3303 50.9568 67.6446 50.7019 67.7421 50.0083C67.7963 49.626 67.753 49.4845 67.4821 49.1164C67.1895 48.7483 67.0811 48.6917 66.5501 48.6917H65.9433V47.4176V46.1435H67.4712C68.3056 46.1435 69.075 46.0869 69.1834 46.0019C69.5084 45.7896 69.6818 45.0818 69.5301 44.6004C69.3134 43.9492 69.0425 43.8785 66.821 43.8785C64.9247 43.8785 64.7621 43.8926 64.4912 44.1757Z" fill="black"/>
<path d="M36.6309 61.2203C36.2733 61.6875 36.2841 62.2113 36.6743 62.7209L36.9885 63.1315H42.8076H48.6268L48.941 62.7209C49.1144 62.4944 49.2553 62.1971 49.2553 62.0697C49.2553 61.73 48.9627 61.0504 48.7676 60.9513C48.6701 60.9089 45.961 60.8664 42.7426 60.8664H36.891L36.6309 61.2203Z" fill="black"/>
<path d="M57.0897 65.9628C56.9597 66.1043 56.8297 66.3733 56.7863 66.529C56.6779 66.9537 56.9163 67.5908 57.2306 67.789C57.4256 67.9022 59.452 67.9447 64.22 67.9447H70.9386L71.1987 67.5908C71.372 67.3784 71.4696 67.0811 71.4696 66.8122C71.4696 66.5432 71.372 66.2459 71.1987 66.0336L70.9386 65.6796H64.1225C57.5015 65.6796 57.3064 65.6938 57.0897 65.9628Z" fill="black"/>
</svg>
