<svg width="67" height="200" viewBox="0 0 67 200" fill="none" xmlns="http://www.w3.org/2000/svg">
<mask id="mask0_89_88" style="mask-type:luminance" maskUnits="userSpaceOnUse" x="7" y="0" width="60" height="193">
<path d="M7.25 0H67V192.667H7.25V0Z" fill="white"/>
</mask>
<g mask="url(#mask0_89_88)">
<path d="M33.2604 0.0522461H33.7917C33.6302 2.29183 33.7812 4.54704 33.6146 6.79183C33.4583 8.68766 33.5104 10.6512 32.8333 12.4585C33.2865 12.4741 33.8229 12.37 34.1823 12.7189C34.7448 14.4689 34.5365 16.3387 34.3542 18.1304C34.3021 18.8439 33.9531 19.4897 33.875 20.1981C34.0781 20.7293 34.4531 21.1772 34.6927 21.6929C35.3542 22.9272 35.3385 24.3752 35.8281 25.672C36.2969 26.8647 36.4167 28.1356 36.6719 29.3804C37.1146 30.6252 37.1094 31.9585 37.349 33.245C37.6354 34.7241 37.6094 36.2397 37.9375 37.7137C38.1563 40.0887 38.599 42.4325 38.7969 44.8075C39.2188 47.7502 39.3333 50.745 39.9688 53.6616C40.3333 56.6825 40.75 59.6929 41.0365 62.7241C41.0781 64.1408 41.4271 65.521 41.5 66.9325C41.901 69.0835 41.8958 71.2918 42.4219 73.4272C43 75.8231 43.4583 78.245 43.8177 80.6825C43.9167 81.422 43.8594 82.1929 44.1094 82.9064C44.5625 84.1929 44.7292 85.5575 45.1562 86.8543C45.3854 87.8127 45.9167 88.6616 46.1406 89.62C46.401 90.6981 46.9688 91.672 47.151 92.771C47.2396 93.5731 47.9062 94.1356 48.125 94.8856C48.276 95.7345 47.776 96.547 47.9219 97.396C48.0313 98.1668 48.2031 98.9325 48.3125 99.7085C48.4948 99.5731 48.6875 99.4377 48.875 99.3022C48.8594 98.1825 48.9583 97.047 48.7135 95.9377C48.6302 95.2189 48.2917 94.4637 48.5781 93.7502C48.8385 93.1877 49.5052 92.995 50.0104 92.7085C51.1042 92.1304 52.375 92.4481 53.4896 92.7918C54.3646 93.1929 55.0781 93.8752 55.6615 94.6252C56.0625 95.1512 56.7135 95.4116 57.1198 95.9272C57.099 96.5731 56.8177 97.172 56.7135 97.8075C56.5833 98.5002 56.5417 99.2241 56.1979 99.8595C55.9115 100.479 55.2031 100.74 54.5833 100.906C52.6823 101.203 50.9115 100.235 49.0469 100.057C48.8021 100.281 48.4271 100.552 48.5573 100.938C48.7552 101.938 48.9375 102.943 49.1302 103.948C49.3802 104.521 49.7344 105.089 49.5833 105.745C50.1146 105.042 51.0156 104.818 51.8021 104.516C52.8073 104.193 53.7031 103.526 54.7865 103.458C56.1354 103.271 57.4792 103.625 58.8229 103.74C60.9583 104 62.6354 105.458 64.4115 106.526C65.6094 107.302 66.375 108.552 66.9948 109.797C66.1719 110.344 65.4583 111.026 64.6458 111.583C63.4688 112.266 62.0469 112.307 60.7188 112.255C60.0417 112.219 59.3073 112.344 58.6875 112.005C57.7917 111.521 56.7708 111.177 56.1042 110.375C55.6094 109.839 55.3646 109.141 55.0052 108.521C54.5729 107.776 53.776 107.365 53.2188 106.729C52.8125 106.281 52.5469 105.729 52.1406 105.281C51.4427 105.235 50.8229 105.724 50.1719 105.932C49.8125 106.245 50.3542 106.432 50.5312 106.667C51.4583 107.656 51.8073 109.047 51.8073 110.375C51.9375 110.688 52.0625 111.005 52.1875 111.323C53.4531 112.057 54.7552 112.766 55.724 113.886C56.8177 113.917 57.9531 113.985 58.9688 114.427C61.5573 115.349 63.599 117.672 64.1875 120.333C64.5729 122.11 64.0885 123.901 63.625 125.61C63.099 124.953 62.625 124.203 61.8698 123.781C60.0885 122.818 58.1667 122.094 56.5208 120.906C55.1927 119.979 54.3646 118.354 54.4896 116.735C54.4531 115.901 54.9479 115.203 55.1823 114.438C54.5521 113.469 53.4323 112.906 52.4427 112.339C52.7083 113.099 52.9271 113.886 53.2969 114.61C54.0625 115.891 53.6615 117.438 53.75 118.844C53.8646 119.969 53.599 121.094 53.7188 122.224C53.7552 123.448 54.0677 124.656 53.974 125.88C54.0521 126.318 54.1042 126.755 54.1562 127.198C55.0625 127.974 56.2448 128.708 56.4479 129.985C56.5365 130.589 56.8021 131.208 56.5833 131.823C57.2292 131.875 58.0469 131.776 58.474 132.375C59.0104 133.146 59.2708 134.089 59.3854 135.011C59.4531 137.031 58.1302 138.792 56.5521 139.932C55.7448 140.386 54.8958 140.781 54.0521 141.162C54.1354 141.417 54.2135 141.672 54.2969 141.932C53.9896 143.182 53.5573 144.406 52.849 145.5C52.2917 146.162 52.2865 147.099 51.7396 147.776C51.2865 148.323 51.4323 149.083 51.1406 149.693C50.9271 150.104 50.5052 150.339 50.1562 150.62C49.7188 152.578 48.8333 154.401 48.3333 156.339C47.5104 158.386 46.776 160.469 46.2344 162.604C45.9688 164.255 46.1302 165.932 46.2344 167.589C46.5625 168.266 46.7552 168.995 47.0208 169.698C47.8229 169.563 48.6146 169.37 49.4115 169.208C49.5156 169.031 49.6198 168.854 49.7344 168.682C48.9844 168.5 48.1563 168.375 47.5885 167.818C47.1615 167.141 47.0938 166.313 46.9896 165.537C46.8177 164.25 47.5573 163.104 48.0156 161.953C48.3854 160.974 48.9479 160.083 49.3906 159.136C50.3073 160.188 51.2448 161.25 51.8594 162.511C52.5573 163.557 53.401 164.615 53.3802 165.943C53.3698 166.917 53.5677 168.229 52.5729 168.813C51.9427 169.245 51.2031 168.802 50.5521 168.656C50 169.875 48.4844 170.412 47.2344 170.214C47.6563 171.38 48.4115 172.537 48.2396 173.823C48.599 173.891 49.0052 173.87 49.3177 174.099C50.1615 174.74 50.974 175.745 50.5677 176.865C50.8229 177.552 51.1667 178.235 51.1875 178.974C51.0677 179.589 50.5156 179.943 49.9583 180.12C50.7865 181.12 50.7396 182.511 51.4323 183.589C51.8698 183.516 52.3229 183.568 52.7031 183.823C51.5833 182.662 51.8698 180.86 52.651 179.594C53.1146 178.63 54.0417 178.021 54.5781 177.11C55.4948 178.396 56.0833 179.886 56.1927 181.458C56.2448 182.396 56.4688 183.573 55.6927 184.287C54.9375 184.771 54.0521 184.208 53.2552 184.156C52.8438 184.474 52.3438 184.354 51.8906 184.24C52.2969 185.037 52.7917 185.776 53.4375 186.412C54.0469 187.313 54.901 187.995 55.5573 188.86C56.1458 189.188 56.6615 189.63 57.1927 190.047C57.901 190.667 58.6667 191.432 58.5469 192.458C57.6667 191.589 56.9219 190.578 55.9427 189.807C53.9427 188.349 52.3594 186.412 51.0156 184.365C50.125 183 50.0208 181.339 49.3125 179.901C48.4323 179.63 47.526 179.302 46.9219 178.573C45.9948 177.516 44.7135 176.849 43.7708 175.807C43.3958 175.406 43.0312 174.99 42.6667 174.578C43.1719 174.453 43.6823 174.344 44.2083 174.302C45.4375 174.219 46.6354 173.896 47.875 173.922C47.6354 173.167 47.4792 172.38 47.1042 171.677C46.6771 170.901 46.6094 170 46.2396 169.203C45.3333 167.188 45.349 164.927 45.4583 162.766C45.4896 162.177 45.8542 161.677 45.9844 161.115C46.276 159.61 46.7344 158.12 47.4479 156.755C47.7812 155.969 47.849 155.11 48.1875 154.328C48.7344 153.172 49.0625 151.922 49.724 150.818C49.2396 150.854 48.75 150.86 48.2917 150.682C46.3802 150.016 44.4062 149.542 42.5 148.854C43.3385 148.208 44.0104 147.396 44.5312 146.49C45.8958 144.531 48.7031 144.177 50.7865 145.099C51.3229 145.417 51.4479 146.078 51.6927 146.604C51.8125 146.151 51.9635 145.708 52.1927 145.297C52.875 144.021 53.4792 142.672 53.6615 141.229C52.5156 141.432 51.375 141.662 50.276 142.042C49.8802 141.354 49.5312 140.641 49.2448 139.901C48.9375 139.089 48.9896 138.203 48.9323 137.344C48.8646 136.167 48.8802 134.938 49.3802 133.844C50.1979 132.287 51.3802 130.688 53.25 130.38C54.0052 127.693 53.224 124.922 52.9635 122.219C52.2292 123.766 50.8854 124.886 49.4844 125.818C48.4948 126.459 47.1094 126.714 46.0938 125.995C45.125 125.271 44.0365 124.703 43.1146 123.922C42.4219 123.328 41.5469 122.969 40.9323 122.281C43.1354 121.016 45.4531 119.833 47.9948 119.458C48.776 119.453 49.5521 119.557 50.3333 119.589C51.4167 119.61 52.3802 120.281 53.0052 121.125C52.9896 119.313 53.1042 117.5 53.0312 115.688C52.8542 114.75 52.3646 113.917 51.9479 113.073C51.5052 111.735 51.0208 110.386 50.9896 108.958C51.026 108.261 50.5469 107.724 50.1562 107.203C49.9427 106.917 49.7135 106.656 49.4844 106.391C49.3438 107.49 49.4844 108.63 49.1458 109.703C48.8906 110.771 48.0417 111.531 47.4219 112.396C46.6615 113.313 45.9115 114.339 44.7604 114.797C43.1823 115.49 41.6042 116.193 40.0938 117.037C39.4688 116.224 38.875 115.386 38.3802 114.485C37.849 113.531 37.1094 112.604 37.0885 111.464C37.0052 109.953 37.4844 108.479 37.6927 106.99C37.4844 106.964 37.0781 106.906 36.8698 106.88C36.9219 108.583 36.2031 110.229 35.1823 111.568C34.0208 113.417 32.276 114.932 30.2083 115.682C29.2448 116.021 28.3958 116.651 27.3854 116.86C26.5729 117.021 25.7344 116.979 24.9062 116.99C24.8021 117.979 24.5156 118.964 24.5938 119.969C24.7917 121.563 25.3854 123.104 25.4219 124.724C25.2656 126.052 25.3281 127.427 24.8542 128.703C24.6719 129.318 24.276 129.901 24.3229 130.568C24.1146 130.698 23.9062 130.833 23.6979 130.969C24.1094 131.651 24.4844 132.375 24.6302 133.162C24.6667 133.792 24.4792 134.438 24.7604 135.047C25.2813 135.172 25.7917 135.344 26.3021 135.521C26.3281 135.568 26.3802 135.662 26.4115 135.708C27.5052 136.557 28.5052 137.761 28.4323 139.224C28.5 141.208 27.0469 142.745 25.8125 144.13C25.0677 143.266 23.8021 143.193 23.0573 142.339C22.526 141.833 22.2135 141.167 21.9375 140.5C21.6302 139.755 20.9688 139.016 21.3333 138.162C21.6927 136.891 22.5573 135.307 24.099 135.396C24.0104 134.61 23.9479 133.828 23.9062 133.042C23.651 132.552 23.4427 132.037 23.3385 131.5C22.8542 132.531 22.1146 133.406 21.4323 134.307C21.0885 134.922 20.7813 135.563 20.3073 136.094C20.2031 137.604 19.4688 138.969 19.2552 140.458C18.8333 142.031 18.6042 143.662 18.6615 145.292C18.776 146.005 18.9479 146.714 19 147.443C19.026 148.057 19.5052 148.854 18.7865 149.261C18.5781 148.526 18.2292 147.797 18.2917 147.021C18.3229 146.349 18.1563 145.693 18.0781 145.031C16.4792 144.958 14.7448 145.531 13.2552 144.729C12.5417 144.323 11.776 143.964 11.2292 143.344C10.4427 142.37 10.1719 141.11 10.0104 139.901C9.80729 138.61 9.98958 137.271 9.61458 136C10.5312 136.583 11.224 137.417 11.974 138.188C12.9896 139.287 14.151 140.245 15.1042 141.406C16.2188 142.391 16.5937 144.021 18.0156 144.693C18.0208 143.995 17.9792 143.297 18.0729 142.61C18.5052 140.698 18.7031 138.693 19.5938 136.917C19.3333 137.214 19.0885 137.578 18.6771 137.682C17.6667 137.948 16.5885 138.068 15.5521 137.875C14.5833 137.615 13.6354 137.245 12.7552 136.755C11.75 136.224 11.1719 135.172 10.7656 134.156C10.1927 132.682 10.4896 131.089 10.3229 129.557C11.7396 129.537 13.1823 129.104 14.5833 129.495C15.6719 129.86 16.5417 130.641 17.5052 131.229C18.5469 131.938 19.8646 132.615 20.1354 133.969C20.0938 134.485 19.9531 134.99 19.8906 135.505C20.3958 135.203 20.5 134.583 20.7708 134.104C21.0677 133.328 21.8958 132.943 22.2656 132.208C22.7031 131.386 23.3281 130.656 23.6615 129.781C23.9219 128.667 23.5521 127.537 23.4427 126.427C23.25 125.125 22.4219 124.089 21.6354 123.089C21.526 123.459 21.5885 123.974 21.2031 124.193C20.5625 124.521 19.8333 124.604 19.1875 124.912C18.3229 125.297 17.4115 125.682 16.4427 125.615C14.4635 125.651 12.7135 124.552 11.1979 123.406C10.2708 122.505 9.29687 121.651 8.1875 120.974C8.81771 119.651 10.3333 119.49 11.5469 119.011C13.4479 118.021 15.5885 117.521 17.7292 117.458C18.7135 117.328 19.6354 117.802 20.526 118.146C22.0104 118.755 22.5208 120.698 21.9375 122.078C22.1042 122.776 22.6719 123.25 23.1042 123.787C23.4531 124.573 23.8646 125.349 24.0417 126.203C24.2031 126.906 24.0156 127.672 24.3646 128.339C25.1458 126.016 24.8073 123.521 24.2292 121.193C23.8854 119.927 24.1354 118.61 24.4792 117.37C23.9844 116.188 22.8073 115.188 23.1354 113.781C22.724 114.297 22.2917 114.807 21.7865 115.235C20.9583 115.583 20.0313 115.583 19.1615 115.787C18.0781 116.005 17.1406 115.323 16.224 114.88C13.6979 113.511 12.1458 110.979 9.85417 109.328C10.1354 109.125 10.4167 108.917 10.7448 108.802C12.0208 108.323 13.2917 107.797 14.6406 107.537C16.2344 106.985 17.9635 106.964 19.6146 107.24C20.6771 107.302 21.6302 107.86 22.3333 108.625C22.8333 109.12 23.2969 109.646 23.7396 110.182C24.1354 109.281 24.6562 108.443 25.2812 107.677C25.1042 107.141 24.9167 106.615 24.6719 106.11C24.4792 105.703 24.276 105.297 24.1042 104.88C23.8958 104.693 23.6927 104.511 23.4896 104.323C23.4427 104.927 23.4062 105.537 23.2396 106.12L22.9479 106.24C22.9427 105.479 22.9583 104.719 22.9844 103.958C22.6927 103.792 22.401 103.636 22.099 103.5C20.7031 104.094 19.474 105.11 17.9323 105.297C16.4271 105.531 15.0052 104.818 13.7708 104.068C13.0104 103.625 12.5052 102.886 12.0469 102.167C11.1667 100.729 11.2292 98.9741 10.5469 97.4637C12.1042 97.495 13.6823 97.3908 15.1771 96.9272C16.9948 96.3856 19.0365 96.396 20.7448 97.2814C21.526 97.7345 22.4427 98.0575 22.9479 98.8491C23.0885 97.0418 23.1042 95.2345 23.3542 93.4377C23.375 91.8022 23.6354 90.1877 23.6667 88.5522C23.8854 86.3335 24.3854 84.1564 24.8385 81.9793C25.2865 76.8856 26.1042 71.8179 26.276 66.7033C26.3594 64.8647 26.9479 63.0887 26.9271 61.2502C27.0156 60.1929 27.1667 59.146 27.2083 58.0887C27.5521 56.2866 27.7344 54.4533 27.7188 52.62C28.0417 49.9897 27.7708 47.2397 28.7656 44.7241C29.0052 44.0835 29.0104 43.396 29.1146 42.7293C29.8125 39.4481 30.4635 36.1512 30.8906 32.8231C31.4531 30.1929 31.7865 27.521 32.1198 24.8543C32.3646 23.2241 32.9792 21.6616 33.099 20.0158C33.0677 19.3752 32.5052 18.9168 32.375 18.3022C32.2552 17.62 31.8229 17.0418 31.7396 16.3543C31.6198 15.4585 31.4271 14.5002 31.7917 13.6356C31.9896 13.1356 32.4167 12.7658 32.6302 12.2814C32.8438 11.6616 32.9427 11.0054 32.9948 10.3543C33.1667 6.92204 33.1563 3.48454 33.2604 0.0522461ZM32.6146 13.3752C32.3021 14.1304 32.1458 14.9272 32.1615 15.7397C32.3802 16.1147 32.3854 16.5522 32.4323 16.9741C33.0573 17.5002 32.9635 18.4168 33.5 19.0106C33.7031 17.8908 33.8125 16.7502 33.7708 15.6095C33.7344 14.8179 33.9427 13.9897 33.6354 13.2345C33.2865 13.0939 32.9271 13.2137 32.6146 13.3752ZM33.6875 20.8022C33.3438 21.9845 33.3281 23.2189 33.1719 24.4325C33.0313 25.9012 33.3281 27.3804 33.0833 28.8439C33.0521 30.4481 33.1875 32.0627 32.9896 33.6616C32.9271 35.9168 32.8646 38.172 32.5521 40.4116C32.2552 41.9429 32.1927 43.5054 31.9427 45.047C32.099 45.896 31.8802 46.7345 31.8646 47.5835C31.9479 49.4741 31.6823 51.3647 31.7552 53.2554C31.5573 55.1304 31.5365 57.0106 31.5469 58.8908C31.4844 61.0054 31.0365 63.1043 31.1615 65.2241C31.0365 66.6304 31.2969 68.0366 31.0885 69.4377C31.1042 71.2606 31.1667 73.0835 31.0885 74.9064C31.1354 76.0262 30.8646 77.1252 30.8802 78.2502C30.8906 79.9533 30.3229 81.6304 30.7031 83.3231C30.7604 86.0991 30.6719 88.8804 30.8385 91.6512C32.7292 92.9897 33.8073 95.0835 35.2292 96.8387C35.75 97.4898 36.026 98.2814 36.3958 99.0158C36.8698 100.141 37.1198 101.5 36.5729 102.641C36.0521 103.667 34.8073 103.792 33.8021 104.005C34.3906 104.261 34.7604 104.886 34.7135 105.521C34.8646 105.682 35.0156 105.849 35.1719 106.011C35.7708 106.162 36.4844 106.219 36.776 106.854C37.099 106.87 37.4271 106.88 37.75 106.896C37.8594 106.255 37.9063 105.61 38.0521 104.979C38.4948 103.901 39.5521 103.224 40.6354 102.891C40.9427 101.823 41.4115 100.698 42.3542 100.021C42.5208 99.62 42.7188 99.2189 43.0677 98.9377C42.2188 98.745 41.2812 98.7814 40.5312 98.2866C39.9375 97.9064 39.2448 97.6304 38.8073 97.0575C38.3906 96.3231 38.0729 95.5366 37.6719 94.7918C36.7969 93.0314 36.9896 90.995 36.3125 89.1825C36.1667 88.7397 35.849 88.3595 35.8177 87.8908C37.1823 88.0106 38.4063 88.7085 39.7604 88.8804C41.0781 89.1616 42.5833 89.172 43.5677 90.2241C44.3906 91.2241 45.401 92.0522 46.4792 92.7554C46.125 91.5002 45.7188 90.2606 45.3906 89.0002C44.0104 86.0991 43.5677 82.8908 43.0833 79.7554C42.6771 78.0679 42.526 76.3179 41.9479 74.672C41.526 72.8179 41.3646 70.922 41.0833 69.0418C40.7969 67.1408 40.5469 65.2345 40.3438 63.3179C40.224 62.271 40.3438 61.2033 40.1354 60.1616C39.9271 59.0262 39.9323 57.8595 39.6458 56.7397C39.3646 55.0939 39.2396 53.4272 38.8333 51.8022C38.6094 49.9793 38.4323 48.1512 38.2604 46.3231C37.7865 41.3908 36.9427 36.495 36.4323 31.5679C36.0573 29.2397 35.5625 26.9325 34.9531 24.6564C34.6146 23.3543 34.4792 21.9272 33.6875 20.8022ZM32.3906 27.0158L32.4792 27.1825C32.2135 28.3179 32.1719 29.4845 32.0469 30.6408C31.5521 33.0522 31.1667 35.4897 30.6354 37.896C30.2969 39.3387 30.2344 40.8387 29.849 42.2762C29.4583 44.2502 28.75 46.1668 28.651 48.1929C28.5052 51.2189 28.4583 54.2554 28.0417 57.2606C27.6823 59.771 27.8281 62.3491 27.1719 64.8179C26.901 65.9845 26.9635 67.1929 26.8229 68.3804C26.7812 71.3439 26.4688 74.3075 26.0885 77.2502C25.724 79.6147 25.7083 82.0418 25.0417 84.3647C24.4479 87.1304 24.2656 89.9689 24.125 92.7866C23.8594 95.2293 23.5365 97.672 23.6562 100.13C23.7396 101.261 23.5365 102.386 23.5312 103.516C24.5208 103.99 25.1615 105.052 25.2135 106.13L25.2604 106.136C25.3698 106.443 25.4844 106.755 25.6042 107.068C25.9323 106.88 26.1562 106.573 26.3646 106.266C27.349 105.24 28.724 104.391 30.2031 104.755C30.1615 104.344 30.125 103.932 30.0885 103.521C29.4219 103.401 28.7344 103.354 28.1094 103.073C26.3594 102.485 25.0781 100.958 24.4948 99.2606C23.5833 97.3075 24.3958 95.1668 24.7083 93.172C24.7969 92.3075 25.5365 91.7137 25.776 90.9012C25.9271 90.4741 25.9271 89.995 26.1823 89.6147C26.4844 89.4637 26.6979 89.8075 26.9115 89.9533C27.7708 90.8283 29.0313 91.0418 30.1719 91.3335C30.2083 90.1252 30.224 88.9116 30.1719 87.7033C30.0104 83.7137 30.1042 79.7189 30.4115 75.7397C30.3646 73.2866 30.5156 70.8335 30.4219 68.3804C30.4531 65.9325 30.2188 63.4533 30.7552 61.0418C30.8802 59.5679 30.9948 58.0835 30.8438 56.6095C30.75 55.271 30.9896 53.9429 31.0469 52.6095C30.9167 51.0679 31.1458 49.5262 31.1198 47.9793C31.2604 46.0783 31.276 44.1616 31.5781 42.2762C32.0052 39.5106 32.25 36.7189 32.2396 33.9272C32.6615 31.4897 32.0781 28.9637 32.7865 26.5731C32.6615 26.7241 32.5313 26.8752 32.3906 27.0158ZM46.1146 98.4897C45.5104 98.6095 44.901 98.6356 44.3021 98.7554C43.9167 99.12 43.4323 99.4116 43.2135 99.9168C42.8958 100.568 42.3125 101.021 41.7812 101.49C41.625 101.974 41.4583 102.458 41.2812 102.938C42.0365 102.86 42.8333 102.787 43.5312 103.151C44.4375 103.646 45.4219 103.13 46.3438 102.979C46.6927 102.078 47.1719 101.224 47.776 100.469C47.6458 99.4585 47.4531 98.4533 47.3021 97.4429C46.8802 97.7658 46.7083 98.4168 46.1146 98.4897ZM46.9635 103.016C47.5104 103.057 48.0052 103.276 48.4635 103.552C48.2865 102.818 48.125 102.078 47.9427 101.344C47.6354 101.912 47.3646 102.505 46.9635 103.016ZM30.625 103.667C30.6146 104.042 30.6094 104.412 30.599 104.787C31.1094 104.865 31.6198 104.964 32.1094 105.146C32.8438 105.36 33.4323 105.953 34.224 106.005C34.125 105.636 34.0573 105.25 33.8385 104.932C32.9427 104.136 31.7448 103.943 30.625 103.667ZM54.276 128.266C54.1302 128.995 54.2396 129.839 53.6562 130.406C54.5469 130.474 55.3542 130.875 56.0677 131.386C56.0417 130.688 55.7865 130.005 55.4948 129.375C55.1458 128.948 54.7031 128.604 54.276 128.266Z" fill="#809971"/>
</g>
<mask id="mask1_89_88" style="mask-type:luminance" maskUnits="userSpaceOnUse" x="7" y="148" width="18" height="52">
<path d="M7.25 148.667H24.5833V200H7.25V148.667Z" fill="white"/>
</mask>
<g mask="url(#mask1_89_88)">
<path d="M16.6301 149.984C17.7291 149.661 18.8333 148.984 20.0208 149.302C21.2187 149.776 22.3333 150.917 22.1614 152.292C22.2708 152.224 22.4791 152.083 22.5833 152.016C22.8958 152.109 23.4426 152.245 23.2499 152.703C22.5885 154.073 21.2655 154.927 20.1718 155.922C20.0364 157.573 19.776 159.255 20.2291 160.88C20.1093 161.745 20.4895 162.542 20.4947 163.401C20.5885 164.338 20.6666 165.286 20.5364 166.229C20.7812 167.104 21.0468 167.989 21.1405 168.896C21.1718 169.51 21.7812 169.932 21.7239 170.562C21.7708 171.896 20.4999 172.995 20.8958 174.338C20.9843 175.818 20.7812 177.292 20.6405 178.766C20.177 180.198 20.4322 181.713 20.5208 183.187C20.4791 184.25 20.3176 185.312 20.0885 186.349C19.901 187.161 20.1458 188.151 19.4687 188.781C20.052 188.937 20.703 188.989 21.2187 189.333C21.802 189.906 22.0728 190.781 21.9583 191.588C21.8333 192.167 21.526 192.687 21.401 193.271C21.2239 194.052 21.276 194.859 21.276 195.656C20.1353 194.948 19.6614 193.594 18.6874 192.713C18.177 192.266 17.8176 191.667 17.7239 191C16.5312 192.318 15.9843 194.052 15.203 195.614C14.7916 196.182 14.4114 196.781 13.953 197.318C13.2083 198.026 12.3176 198.557 11.3801 198.979C10.2968 199.406 9.21867 199.906 8.03638 199.958C9.052 198.875 10.7083 198.833 11.8697 197.953C12.5937 197.422 13.5364 197.114 14.0312 196.333C14.7135 195.234 15.4218 194.114 15.7864 192.864C16.0468 192.12 16.4635 191.443 16.9583 190.838C17.4114 190.286 17.6458 189.588 18.1666 189.094C18.6197 188.656 19.1718 188.255 19.2968 187.594C19.4583 186.411 19.552 185.219 19.7083 184.036C19.8905 182.635 19.526 181.229 19.7291 179.833C19.7968 179.193 19.9635 178.568 20.0103 177.927C20.052 176.719 20.3749 175.526 20.2135 174.318C19.4687 175.552 18.5364 176.672 17.8697 177.953C16.8333 176.937 15.8333 175.88 15.0885 174.63C14.1718 173.057 13.9895 171.031 14.802 169.38C15.3489 168.505 16.2343 167.807 17.276 167.635C17.7447 167.542 18.0676 167.963 18.4687 168.125C19.1093 168.349 19.7655 168.557 20.4218 168.75C20.3333 168.219 20.3333 167.677 20.1874 167.156C19.8801 165.995 20.0208 164.776 19.7864 163.604C19.7083 163.276 19.7499 162.943 19.802 162.614C19.6822 162.328 19.4687 162.062 19.4739 161.745C19.4999 160.75 19.2551 159.776 19.2395 158.786C19.177 158.078 19.4426 157.396 19.4999 156.687C18.6197 157.203 17.7135 157.854 16.6353 157.771C14.2968 157.667 12.0364 156.969 9.88534 156.094C10.8958 154.963 11.6562 153.63 12.6405 152.479C13.2239 151.792 14.1926 151.682 14.8593 151.109C15.3958 150.656 15.9322 150.167 16.6301 149.984Z" fill="#809971"/>
</g>
<path d="M49.6304 152.823C50.4585 152.536 51.3179 152.193 52.2137 152.37C53.2137 152.552 54.3127 152.708 55.0783 153.437C55.5783 154.333 56.547 154.792 57.12 155.641C57.5522 156.417 58.2189 157.021 58.7658 157.719C59.8127 158.219 61.0366 158.099 62.0366 158.724C62.4533 158.917 62.7658 159.271 62.9325 159.703C62.3856 159.656 61.9168 159.391 61.4429 159.146C60.5262 158.833 59.5522 158.661 58.6668 158.266C57.4429 157.448 56.6095 156.198 55.7345 155.052C54.8335 154.792 54.6304 153.724 53.745 153.443C52.6252 153.094 51.37 152.839 50.2293 153.24C49.9481 153.318 49.6668 153.37 49.3804 153.411C49.4429 153.266 49.5679 152.969 49.6304 152.823Z" fill="#809971"/>
<mask id="mask2_89_88" style="mask-type:luminance" maskUnits="userSpaceOnUse" x="0" y="156" width="14" height="9">
<path d="M0 156.667H13.9167V164.667H0V156.667Z" fill="white"/>
</mask>
<g mask="url(#mask2_89_88)">
<path d="M12.0105 157.74C12.2501 157.432 12.599 157.193 13.0105 157.219C12.2292 158.432 11.5522 159.719 11.1251 161.099C10.7188 161.812 10.4845 162.641 9.89071 163.234C9.29175 163.724 8.53133 164.042 7.75529 164.109C6.55737 163.891 5.30737 164.042 4.17717 164.479C2.98967 164.318 1.823 164.062 0.677165 163.708C0.385498 163.589 0.187581 163.328 -0.00512695 163.104C1.44279 162.969 2.75008 163.797 4.16675 163.854C5.16675 163.589 6.15112 163.177 7.21362 163.359C6.52612 162.911 5.79175 162.526 5.20842 161.948C4.68237 161.844 4.05737 161.859 3.79175 161.292C4.79175 160.854 5.79175 161.557 6.56779 162.13C7.198 162.396 7.68237 162.943 8.38029 163.057C8.41154 163.125 8.46883 163.26 8.50008 163.328C9.54696 162.901 9.93237 161.781 10.448 160.88C10.7709 159.745 11.3074 158.687 12.0105 157.74Z" fill="#809971"/>
</g>
<path d="M22.4271 106.505C22.599 106.411 22.7709 106.323 22.948 106.239L23.2396 106.12C23.7188 106.104 24.1928 106.109 24.6719 106.109C24.9167 106.614 25.1042 107.14 25.2813 107.677C24.6563 108.443 24.1355 109.281 23.7396 110.182C23.2969 109.646 22.8334 109.12 22.3334 108.625C22.2501 107.917 22.2449 107.198 22.4271 106.505Z" fill="#CCD4C5"/>
<path d="M25.2603 106.135C25.6196 106.187 25.9894 106.239 26.3644 106.265C26.1561 106.573 25.9321 106.88 25.604 107.068C25.4842 106.755 25.3696 106.443 25.2603 106.135Z" fill="#CCD4C5"/>
<path d="M49.4846 106.391C49.7138 106.656 49.943 106.917 50.1565 107.203C50.4742 108.396 50.2659 109.646 50.4273 110.865C50.469 113.771 50.3388 116.682 50.3336 119.589C49.5523 119.557 48.7763 119.453 47.995 119.458C45.4534 119.833 43.1357 121.016 40.9325 122.281C41.5471 122.969 42.4221 123.328 43.1148 123.922C44.0367 124.703 45.1252 125.271 46.094 125.995C47.1096 126.714 48.495 126.458 49.4846 125.818C48.8544 129.203 48.1461 132.568 47.6148 135.969C44.5836 136.385 41.5263 136.188 38.4742 136.229C36.219 136.188 33.9221 136.307 31.7138 135.75C30.8752 135.562 30.0107 135.661 29.1565 135.641C28.2398 135.651 27.318 135.557 26.4117 135.708C26.3805 135.661 26.3284 135.568 26.3023 135.521C25.5367 133.911 24.5836 132.359 24.3232 130.568C24.2763 129.901 24.6721 129.318 24.8544 128.703C25.3284 127.427 25.2659 126.052 25.4221 124.724C25.3857 123.104 24.7919 121.563 24.594 119.969C24.5159 118.964 24.8023 117.979 24.9065 116.99C25.7346 116.979 26.5732 117.021 27.3857 116.859C28.3961 116.651 29.245 116.021 30.2086 115.682C32.2763 114.932 34.0211 113.417 35.1825 111.568C36.2034 110.229 36.9221 108.583 36.87 106.88C37.0784 106.906 37.4846 106.964 37.693 106.99C37.4846 108.479 37.0055 109.953 37.0888 111.464C37.1096 112.604 37.8492 113.531 38.3805 114.484C38.8752 115.385 39.469 116.224 40.094 117.036C41.6044 116.193 43.1825 115.49 44.7607 114.797C45.9117 114.339 46.6617 113.312 47.4221 112.396C48.0419 111.531 48.8909 110.771 49.1461 109.703C49.4846 108.63 49.344 107.49 49.4846 106.391Z" fill="#CCD4C5"/>
<path d="M21.7866 115.234C22.2918 114.807 22.7241 114.297 23.1356 113.781C22.8075 115.187 23.9845 116.187 24.4793 117.37C24.1356 118.609 23.8856 119.927 24.2293 121.193C24.8075 123.521 25.146 126.016 24.3647 128.339C24.0158 127.672 24.2033 126.906 24.0418 126.203C23.8647 125.349 23.4533 124.573 23.1043 123.786C22.8387 122.115 22.5522 120.448 22.1877 118.792C21.8804 117.594 22.0262 116.354 22.0158 115.135L21.7866 115.234Z" fill="#CCD4C5"/>
</svg>
