<svg width="80" height="70" viewBox="0 0 80 70" fill="none" xmlns="http://www.w3.org/2000/svg">
<path d="M11.4547 35.4341C11.4547 36.1995 11.2431 36.72 10.8343 37.0264C10.4109 37.3328 9.94136 37.4399 9.42676 37.3784C8.89756 37.3168 8.38296 37.088 7.88418 36.7053C7.36958 36.3226 7.03624 35.8328 6.85498 35.236C6.68831 34.7155 6.6579 34.211 6.77955 33.7213C6.88539 33.2463 7.20291 32.8784 7.74792 32.604C8.58004 32.1745 9.41216 32.3591 10.2285 33.154C11.046 33.9501 11.4547 34.6995 11.4547 35.4341ZM5.34159 29.8181C5.25157 29.5584 5.12991 29.2828 5.00947 28.9912C4.82699 28.6097 4.55449 28.3181 4.20655 28.104C4.01069 27.9969 3.67735 27.9046 3.20898 27.8283C2.7394 27.752 2.26981 27.7213 1.78684 27.7373C1.30265 27.7668 0.893893 27.8591 0.530145 28.0117C0.167614 28.1655 -0.0148682 28.4411 0.000947183 28.8078C0.000947183 29.0219 0.0459594 29.2213 0.121385 29.4354C0.182213 29.6495 0.24304 29.8488 0.303868 30.0322C0.86348 31.9001 1.181 34.0264 1.27224 36.4444C1.36226 38.8624 1.37808 41.4957 1.34767 44.3566C1.22601 47.2496 1.30265 48.7951 1.57394 48.9944C1.84645 49.1926 2.2102 49.3156 2.67857 49.3611C2.99609 49.3919 3.43526 49.4079 3.99487 49.3771C4.53989 49.3611 4.96325 49.2848 5.26617 49.147C5.52286 49.0547 5.73575 48.8566 5.91702 48.5502C6.00704 48.3976 5.97785 46.622 5.84159 43.2393C6.62748 43.5002 7.62627 43.4694 8.80632 43.1323C10.3197 42.7348 11.6664 41.9854 12.8611 40.9136C13.0436 40.7451 13.2248 40.5617 13.4219 40.3624C13.8599 39.9341 14.254 39.4592 14.5861 38.9547C14.9195 38.4501 15.2224 37.9296 15.4937 37.3784C16.0387 36.2771 16.2808 35.0675 16.2358 33.736C16.1908 32.8181 16.0083 32.0072 15.6908 31.3181C15.3428 30.6142 14.8586 30.0322 14.2382 29.5732C13.6178 29.1142 12.9523 28.7623 12.226 28.5014C11.2735 28.1803 10.2893 28.0584 9.26009 28.1347C8.24671 28.2418 7.30875 28.5482 6.43162 29.0527C6.03746 29.2976 5.67493 29.5424 5.34159 29.8181Z" fill="#2D9D49"/>
<path d="M23.4377 23.7577C23.529 23.0083 23.4377 22.5026 23.1348 22.2577C22.8319 22.0128 22.4243 21.8443 21.9097 21.784C21.546 21.7532 21.1372 21.7372 20.6835 21.768C20.2297 21.7987 19.8513 21.891 19.5192 22.0436C19.2309 22.1814 18.9888 22.4411 18.8075 22.809C18.5654 23.2532 18.3684 23.8648 18.2175 24.6609C18.0362 25.5174 17.9 26.6507 17.8246 28.0276C17.7333 29.4046 17.7029 30.859 17.7333 32.359C17.7491 33.8578 17.8246 35.327 17.945 36.736C18.0667 38.1437 18.2333 39.3065 18.4596 40.2097C18.5654 40.6835 18.7175 41.1732 18.9292 41.663C19.1251 42.1687 19.428 42.5514 19.8367 42.7963C20.0484 42.9489 20.411 43.0719 20.9256 43.163C21.4402 43.27 21.9693 43.3008 22.4998 43.27C23.029 43.2393 23.4985 43.1322 23.9061 42.9181C24.3003 42.72 24.5119 42.3828 24.5119 41.9078C24.4815 41.6482 24.4365 41.3873 24.3611 41.1129C24.2698 40.8521 24.209 40.5924 24.164 40.3475C23.529 37.9899 23.1798 35.2815 23.0898 32.2052C22.9985 29.1449 23.1044 26.3283 23.4377 23.7577Z" fill="#2D9D49"/>
<path d="M31.2452 36.8886C31.5773 36.2918 32.0019 35.8784 32.5457 35.6643C33.0761 35.4501 33.5749 35.3739 34.0591 35.4501C34.5433 35.5264 34.9362 35.7258 35.255 36.0469C35.5725 36.3841 35.6929 36.7816 35.6175 37.2406C35.5263 37.6688 35.3146 38.0822 34.9971 38.4501C34.6649 38.8316 34.1954 39.1232 33.5603 39.3066C32.5457 39.613 31.8194 39.4444 31.3961 38.7713C30.9569 38.0982 30.9119 37.4707 31.2452 36.8886ZM34.3462 31.0572C35.1029 31.4251 35.5421 31.7623 35.6625 32.0675C35.7683 32.3739 35.7988 32.5732 35.7683 32.6335C34.4374 32.3283 33.1966 32.252 32.0311 32.3739C30.8511 32.5117 29.8681 32.8784 29.0506 33.4764C28.2343 34.088 27.6893 34.5469 27.4472 34.8841C27.2051 35.22 26.9326 35.588 26.6601 35.9854C26.1163 36.8123 25.8438 37.7303 25.8438 38.7406C25.8438 39.4592 25.98 40.0867 26.2525 40.6232C26.5396 41.1893 26.963 41.663 27.5226 42.031C28.0676 42.3976 28.688 42.704 29.3535 42.9182C30.216 43.2246 31.1236 43.3624 32.0919 43.3316C33.0299 43.3008 33.9082 43.1015 34.7404 42.7348C35.1029 42.5822 35.5567 42.2906 36.1017 41.8771C36.1625 42.0925 36.2525 42.3066 36.3742 42.5207C36.525 42.8271 36.7671 43.072 37.0847 43.2393C37.2513 43.3316 37.5396 43.4534 37.9472 43.5765C38.3413 43.7143 38.7793 43.7291 39.2635 43.638C39.7477 43.5457 40.0956 43.3931 40.3377 43.163C40.5652 42.9489 40.6869 42.6893 40.6869 42.3976C40.6869 42.2451 40.671 42.0765 40.6102 41.9079C40.5506 41.7553 40.5044 41.6027 40.4594 41.4489C40.0056 40.531 39.7781 39.154 39.7939 37.3021C39.7939 35.6187 39.8389 34.1643 39.9302 32.9399C40.0056 31.7155 39.7331 30.645 39.1272 29.7418C38.5226 28.8546 37.8876 28.2565 37.2209 27.9661C36.5555 27.6757 35.89 27.4616 35.1941 27.3078C34.3012 27.1245 33.3936 27.0334 32.4703 27.0482C31.7744 27.0789 31.0786 27.1405 30.3827 27.2475C29.6868 27.3693 29.0214 27.5995 28.3851 27.9354C28.143 28.0584 27.9009 28.211 27.6747 28.3796C27.3413 28.6245 26.963 28.9616 26.5396 29.4046C26.1163 29.8636 26.0554 30.4001 26.3425 31.0277C26.615 31.6552 27.0992 32.0367 27.7647 32.1597C28.4301 32.2976 29.0214 32.1745 29.5348 31.7771C30.0494 31.3796 30.6698 31.1187 31.4119 30.9809C32.3803 30.8123 33.3486 30.8431 34.3462 31.0572Z" fill="#2D9D49"/>
<path d="M47.9181 29.6654L47.676 29.5116C47.8281 28.777 47.7673 28.2725 47.4802 28.0116C47.1772 27.7668 46.7685 27.5994 46.2235 27.5379C45.8609 27.5071 45.4376 27.4924 44.968 27.5219C44.4838 27.5527 44.075 27.6597 43.7125 27.8135C43.4096 27.9513 43.1371 28.1962 42.9108 28.5629C42.4266 29.7725 42.1383 30.7828 42.0629 31.5777C41.9874 32.3886 41.9424 33.1084 41.9266 33.7212C41.8962 34.3328 41.8962 35.3578 41.9266 36.7655C41.957 38.1745 42.0483 39.3373 42.2137 40.2553C42.305 40.745 42.4266 41.2348 42.5921 41.7245C42.7587 42.2303 43.0458 42.6117 43.44 42.8566C43.6517 43.0104 44.0142 43.1322 44.5592 43.2245C45.1042 43.3316 45.6493 43.3623 46.2089 43.3316C46.7539 43.3008 47.2527 43.1937 47.6918 42.9796C48.1152 42.7803 48.3573 42.4444 48.3877 41.9546C48.3877 41.7097 48.3573 41.4489 48.2965 41.1732C48.2356 40.8988 48.1906 40.638 48.1298 40.3931C47.7515 38.5264 47.6456 37.1187 47.7977 36.1392C48.1456 34.5161 48.7198 33.6597 49.5227 33.5674C50.3086 33.4764 51.0203 33.9353 51.6249 34.9296C51.8074 35.2668 51.9729 35.679 52.0945 36.154C52.2758 36.8578 52.3974 37.6232 52.4571 38.4501C52.5179 39.2758 52.4729 40.0412 52.3512 40.7758C52.3062 40.9751 52.2758 41.1892 52.2454 41.4033C52.215 41.6322 52.2308 41.8316 52.3208 42.0149C52.3512 42.1527 52.4425 42.2598 52.5629 42.3521C52.805 42.5969 53.2746 42.8271 53.9558 43.0412C54.6213 43.2553 55.1955 43.3316 55.6797 43.2393C55.9522 43.1937 56.1639 43.0252 56.3001 42.7495C56.6785 41.9694 56.8147 40.8521 56.7247 39.3988C56.6189 37.9604 56.4972 36.8271 56.3464 36.0014C56.1189 34.8373 55.7405 33.6905 55.1955 32.5424C54.6517 31.3943 53.8646 30.4764 52.8354 29.7725C51.8524 29.1289 50.9145 28.8385 50.0215 28.9308C49.1286 29.0219 48.4327 29.2668 47.9181 29.6654Z" fill="#2D9D49"/>
<path d="M61.5056 27.5834C61.2939 27.6142 61.1272 27.6302 61.0372 27.645C60.5822 27.7212 60.2343 27.7828 60.0226 27.8135C59.6601 27.9046 59.3426 28.0116 59.0846 28.1039C58.6163 28.2873 58.3438 28.5482 58.2683 28.8546C58.1771 29.145 58.1321 29.4809 58.1017 29.8636C58.0713 30.2463 58.1321 30.736 58.2683 31.318C58.328 31.4706 58.3888 31.5937 58.48 31.6552C58.5396 31.7463 58.6163 31.8078 58.7367 31.8386C58.828 31.8693 58.9484 31.8841 59.07 31.8841C59.1297 31.8841 59.2659 31.8693 59.4788 31.8386C60.1138 31.8693 60.7489 31.8533 61.4143 31.8226V32.236C61.4301 34.4091 61.6272 36.3988 62.0202 38.1892C62.4131 39.9956 63.2002 41.3726 64.3803 42.3373C65.5603 43.3168 66.7866 43.7143 68.0725 43.5457C69.3584 43.3771 70.1297 42.7495 70.4022 41.679C70.6601 40.6072 70.3718 39.8418 69.5251 39.3988C68.6771 38.9694 68.0725 38.3123 67.7088 37.4399C67.3462 36.5674 67.2708 34.777 67.4825 32.0834V31.9911C68.4813 32.0527 69.3134 32.0367 69.9788 31.9148C70.6443 31.7918 71.0676 31.4706 71.2793 30.9501C71.4922 30.4308 71.4922 29.8636 71.2951 29.2212C71.1735 28.8386 70.9776 28.5629 70.7355 28.3943C70.3876 28.1655 70.0847 27.9821 69.8268 27.8591C69.2526 27.7372 68.6771 27.645 68.1175 27.5994C67.9058 27.5834 67.6942 27.5687 67.4825 27.5527C67.5421 26.6039 67.6029 25.4103 67.6637 23.9571C67.7696 23.2065 67.6491 22.702 67.2854 22.4571C66.9229 22.2122 66.4229 22.0436 65.7878 21.9821C65.334 21.9514 64.9253 21.9366 64.5311 21.9673C64.1382 21.9981 63.7294 22.0744 63.3365 22.227C62.9885 22.3808 62.7014 22.6404 62.4593 23.0084C62.171 23.4366 61.9593 23.9571 61.8231 24.5539C61.6722 25.1507 61.581 26.0379 61.5214 27.2007C61.5056 27.3386 61.5056 27.4616 61.5056 27.5834Z" fill="#2D9D49"/>
<path d="M36.6639 48.3426C37.2644 47.7922 37.981 47.516 38.8127 47.516C39.6467 47.516 40.3634 47.7922 40.9616 48.3426C41.5621 48.8909 41.8635 49.5478 41.8635 50.3123C41.8635 51.0746 41.5621 51.7315 40.9616 52.2819C40.3634 52.8302 39.6467 53.1043 38.8127 53.1043C37.981 53.1043 37.2644 52.8302 36.6639 52.2819C36.0657 51.7315 35.7666 51.0746 35.7666 50.3123C35.7666 49.5478 36.0657 48.8909 36.6639 48.3426ZM36.1715 55.9512V69.5994H41.3113V55.9512H36.1715Z" fill="#2D9D49"/>
<path d="M45.811 55.9512V53.0495C45.8294 51.0113 46.3505 49.3802 47.3754 48.157C48.4027 46.9339 49.8257 46.3224 51.6455 46.3224C52.4186 46.3224 53.1571 46.4257 53.8634 46.6303C54.5686 46.8327 55.0759 47.0394 55.3865 47.2503L55.8834 47.5455L54.0797 50.869C53.6161 50.6222 53.1042 50.4978 52.5428 50.4978C51.9044 50.4978 51.4776 50.6982 51.2636 51.0967C51.052 51.4963 50.9461 52.1922 50.9461 53.1844V55.9512H54.3742V59.5446H50.9461V69.5994H45.811V59.5446H43.6621V55.9512H45.811Z" fill="#2D9D49"/>
<path d="M60.6705 55.951V62.442C60.6705 63.7916 60.8925 64.7511 61.3377 65.3184C61.7818 65.8835 62.5364 66.1661 63.6016 66.1661C64.6657 66.1661 65.4203 65.8835 65.8655 65.3184C66.3095 64.7511 66.5327 63.7916 66.5327 62.442V55.951H71.6725V63.5849C71.6725 65.8572 71.0283 67.4946 69.7399 68.4984C68.4538 69.5001 66.4085 69.9999 63.6016 69.9999C60.7948 69.9999 58.7471 69.5001 57.4587 68.4984C56.1727 67.4946 55.5308 65.8572 55.5308 63.5849V55.951H60.6705Z" fill="#2D9D49"/>
<path d="M74.8604 69.5993V46.7188H80.0001V69.5993H74.8604Z" fill="#2D9D49"/>
<path d="M12.5872 8.78962C12.5872 8.78962 19.5546 8.259 19.6024 16.5854C12.1097 16.5324 12.5872 8.78962 12.5872 8.78962Z" fill="#35384B"/>
<mask id="mask0_83_498" style="mask-type:luminance" maskUnits="userSpaceOnUse" x="12" y="8" width="9" height="10">
<path d="M12 8.05969H20.2374V17.0057H12V8.05969Z" fill="white"/>
</mask>
<g mask="url(#mask0_83_498)">
<path d="M20.0102 17.0387L19.5998 17.0358C17.184 17.0186 15.3037 16.227 14.0132 14.681C11.9923 12.2617 12.1755 8.90012 12.1833 8.75958L12.2078 8.36807L12.5601 8.34082C12.5601 8.34082 12.6595 8.33221 12.835 8.33221C14.0248 8.33221 19.9625 8.7309 20.0077 16.5826L20.0102 17.0387ZM12.9898 9.23427C13.0118 10.1535 13.2183 12.4094 14.612 14.0744C15.6702 15.3393 17.2085 16.0276 19.1882 16.1237C18.9443 9.95132 14.5875 9.27299 12.9898 9.23427Z" fill="#35384B"/>
</g>
<path d="M20.8867 0.596619C20.8867 0.596619 26.152 5.69631 20.8867 11.622C15.6227 5.69631 20.8867 0.596619 20.8867 0.596619Z" fill="#35384B"/>
<path d="M20.8866 12.2616L20.5988 11.9375C18.9005 10.0259 18.0758 7.98942 18.1468 5.88271C18.2578 2.58283 20.5239 0.349922 20.6207 0.256705L20.8866 0L21.1537 0.256705C21.2492 0.349922 23.5166 2.58283 23.6276 5.88271C23.6986 7.98942 22.874 10.0259 21.1756 11.9375L20.8866 12.2616ZM20.8866 1.2276C20.3174 1.89589 19.0295 3.65267 18.956 5.9243C18.9005 7.64953 19.5496 9.34465 20.8866 10.9681C22.2248 9.34465 22.874 7.64953 22.8185 5.9243C22.7449 3.65267 21.457 1.89589 20.8866 1.2276Z" fill="#35384B"/>
<path d="M29.3834 8.78962C29.3834 8.78962 22.4159 8.259 22.3682 16.5854C29.8609 16.5324 29.3834 8.78962 29.3834 8.78962Z" fill="#35384B"/>
<mask id="mask1_83_498" style="mask-type:luminance" maskUnits="userSpaceOnUse" x="21" y="8" width="9" height="10">
<path d="M21.8892 8.05969H29.8181V17.0057H21.8892V8.05969Z" fill="white"/>
</mask>
<g mask="url(#mask1_83_498)">
<path d="M21.9602 17.0387L21.9628 16.5826C22.008 8.7309 27.9456 8.33221 29.1355 8.33221C29.311 8.33221 29.4103 8.34082 29.4103 8.34082L29.7614 8.36807L29.7872 8.75958C29.7949 8.90012 29.9782 12.2602 27.9572 14.681C26.6667 16.227 24.7864 17.0186 22.3693 17.0358L21.9602 17.0387ZM28.9819 9.23427C27.3842 9.27299 23.0262 9.95132 22.7823 16.1237C24.7645 16.0276 26.3041 15.3364 27.3636 14.0686C28.7586 12.3979 28.9612 10.1507 28.9819 9.23427Z" fill="#35384B"/>
</g>
</svg>
