<svg width="90" height="80" viewBox="0 0 90 80" fill="none" xmlns="http://www.w3.org/2000/svg">
<path d="M9.84222 34.3163C8.71083 41.2531 10.3634 48.3185 14.5184 54.3087C18.6734 60.299 25.0736 64.8433 32.6287 67.1675C40.1838 69.4917 48.4262 69.452 55.9515 67.055C63.4768 64.6581 69.8194 60.0522 73.8987 54.0223C77.9779 47.9923 79.5413 40.9114 78.3226 33.9859C77.1038 27.0604 73.1783 20.719 67.2149 16.042C61.2515 11.365 53.6191 8.64192 45.6182 8.33669C37.6174 8.03146 29.7431 10.163 23.3371 14.3681L44.1104 38.5951L9.84222 34.3163Z" fill="#FFB000" fill-opacity="0.17"/>
<path d="M72.5934 15.872C72.4229 15.9347 71.8021 16.2986 71.2057 16.7001C68.5521 18.4818 65.0708 19.5608 60.287 20.0752C58.1568 20.3136 57.6577 20.5646 57.0978 21.6562L56.7448 22.3462L56.8056 28.4316C56.8421 33.4378 56.8908 34.7302 57.0612 35.7088C57.4873 38.1681 58.1933 40.5896 59.0332 42.4717C59.2645 42.9861 59.4471 43.4504 59.4471 43.5005C59.4471 43.5633 53.3486 43.6135 45.8382 43.6135C31.0121 43.6135 31.4868 43.5884 30.2817 44.3161C29.4053 44.8431 28.6506 45.7214 28.1759 46.7502L27.7377 47.6913L27.7012 61.3675C27.6768 71.4302 27.7012 75.232 27.7985 75.7339C28.2124 77.7289 29.8679 79.4353 31.7911 79.8619C32.2537 79.9622 38.6929 79.9999 54.7363 79.9999C78.7892 79.9999 77.6693 80.025 78.9352 79.3725C80.1403 78.7326 81.2237 77.2772 81.528 75.8594C81.6984 75.1065 81.7227 73.4503 81.7227 63.1241V51.2421L82.7087 50.163C86.19 46.3362 88.4663 41.8694 89.4401 36.9384C89.9148 34.5294 90 33.0363 90 27.5031C90 21.8067 89.9879 21.7942 89.1967 20.9912C88.6245 20.4015 88.2229 20.2634 86.4944 20.0752C81.6132 19.5483 78.1684 18.4818 75.5513 16.6875C74.2245 15.7841 73.5185 15.5834 72.5934 15.872ZM74.3827 18.4818C76.1234 19.7114 78.7648 20.7904 81.6619 21.468C83.1226 21.8067 86.2631 22.271 87.0908 22.2835C87.3708 22.2835 87.6021 22.3713 87.736 22.5219C87.9429 22.7478 87.9551 23.1744 87.8942 28.5194C87.8455 33.6511 87.809 34.4165 87.5899 35.6461C86.2996 42.6348 82.7331 48.3312 77.1824 52.1956C75.953 53.0488 73.7132 54.2785 73.3846 54.2785C73.1168 54.2785 71.1083 53.2245 70.098 52.5595C63.7805 48.3437 59.7757 41.6938 58.9723 34.0526C58.8993 33.3751 58.8384 30.5646 58.8384 27.7917C58.8384 22.1455 58.8141 22.2835 59.6783 22.2835C60.4939 22.271 63.6344 21.8067 65.1073 21.468C67.9678 20.8155 70.9257 19.5859 72.4716 18.4065C72.8368 18.1304 73.2385 17.9046 73.3481 17.892C73.4698 17.892 73.9323 18.1555 74.3827 18.4818ZM61.2121 46.5244C62.5267 48.6574 65.0708 51.4303 67.2375 53.099C68.6982 54.2157 69.7085 54.8682 71.2909 55.6963C72.4351 56.2985 72.5934 56.3487 73.3846 56.3487C74.1636 56.3487 74.3462 56.2985 75.4539 55.7214C76.1234 55.37 77.3041 54.6549 78.0953 54.1153C78.8744 53.5884 79.556 53.1492 79.5925 53.1492C79.6291 53.1492 79.6412 58.1555 79.6291 64.2784L79.5925 75.4202L79.3126 76.0099C79.1543 76.3487 78.8013 76.8129 78.5335 77.0513C77.5232 77.9296 79.3491 77.8669 54.4563 77.8418L31.9981 77.8041L31.5112 77.5281C30.939 77.2144 30.3548 76.5996 30.0383 75.9848C29.8192 75.5582 29.807 74.9685 29.807 61.8067V48.0677L30.0748 47.5658C30.4156 46.9008 31.0243 46.3236 31.6937 46.01C32.2293 45.759 32.4241 45.7465 46.4833 45.7465H60.7252L61.2121 46.5244Z" fill="black"/>
<path d="M71.4368 21.4679C69.124 22.6348 65.6062 23.7013 62.8309 24.1028C62.0762 24.2031 61.5162 24.6046 61.1754 25.2947C60.8954 25.8593 60.8954 25.8593 60.9441 29.9999C60.9928 33.5883 61.0293 34.3286 61.2606 35.5707C62.4048 41.769 65.8009 47.0262 70.9377 50.5268C73.0923 52.0074 73.4696 52.045 75.1494 51.0036C76.7684 49.9998 77.9248 49.0588 79.4098 47.503C82.6599 44.1278 84.6562 40.1755 85.5082 35.3951C85.7273 34.2408 85.776 33.3374 85.8247 29.9371C85.8734 25.8593 85.8734 25.8593 85.5934 25.2947C85.2526 24.6046 84.6927 24.2031 83.938 24.1028C81.1992 23.7138 77.7909 22.6724 75.3442 21.4804C73.4575 20.5645 73.2383 20.5645 71.4368 21.4679ZM74.6747 23.5256C77.2553 24.7803 80.6149 25.8092 83.1102 26.1228L83.8163 26.2107L83.7554 29.9873C83.6945 34.0777 83.5971 34.981 82.9398 37.3148C81.5522 42.183 78.363 46.4867 74.1756 49.109L73.3844 49.5983L72.4228 48.9835C67.9068 46.0977 64.6202 41.3173 63.4638 35.9597C63.0987 34.2282 62.9769 32.6473 62.9769 29.3474V26.2358L64.3281 26.0099C67.0425 25.5582 69.8179 24.6548 72.2889 23.4127C72.8245 23.1492 73.2992 22.9233 73.3357 22.9233C73.3722 22.9108 73.9809 23.1868 74.6747 23.5256Z" fill="black"/>
<path d="M72.2403 27.7664C71.5222 28.0299 70.7309 28.858 70.4875 29.6234C70.3658 29.9622 70.2806 30.577 70.2806 31.0161C70.2806 31.7815 70.2806 31.794 69.9032 31.8693C69.2946 31.9948 68.7103 32.4339 68.4425 32.9609C68.2112 33.4377 68.1991 33.6635 68.2356 37.3273L68.2721 41.1917L68.6251 41.656C69.2337 42.4841 69.3555 42.4966 73.5428 42.459C77.2311 42.4214 77.2798 42.4214 77.6814 42.1328C77.9006 41.9697 78.1805 41.6183 78.3144 41.3549C78.5457 40.9032 78.5579 40.602 78.5579 37.2018C78.5579 33.7388 78.5457 33.5004 78.3022 32.9985C78.0344 32.4214 77.4989 31.9948 76.8659 31.8693C76.4885 31.794 76.4885 31.7815 76.4885 31.0161C76.4885 29.9371 76.2086 29.1591 75.5634 28.5067C74.6992 27.6033 73.4454 27.3273 72.2403 27.7664ZM73.8471 29.8241C74.2366 30.0123 74.4192 30.4389 74.4192 31.1918V31.8191H73.3846H72.3499V31.0788C72.3499 30.4515 72.3986 30.3009 72.6664 30.0123C73.0194 29.661 73.3846 29.5983 73.8471 29.8241ZM76.4885 37.1516V40.3511H73.3846H70.2806V37.1516V33.9521H73.3846H76.4885V37.1516Z" fill="black"/>
<path d="M72.7027 36.4491C71.8628 37.3274 72.727 38.5946 73.8712 38.1429C74.1025 38.0426 74.419 37.4528 74.419 37.089C74.419 36.7 73.7738 36.0852 73.3843 36.0852C73.1896 36.0852 72.9218 36.2358 72.7027 36.4491Z" fill="black"/>
<path d="M34.6394 49.2721C33.9942 49.6109 33.2395 50.4766 33.057 51.1165C32.8379 51.8442 32.8622 54.9308 33.0813 55.4703C33.3734 56.1855 33.8482 56.725 34.5177 57.114L35.1628 57.4779L37.7434 57.5155C40.75 57.5657 41.3586 57.4528 42.1742 56.6999C43.0384 55.8969 43.1845 55.4578 43.2332 53.5004C43.2697 52.1579 43.2332 51.6435 43.0871 51.1792C42.8193 50.3511 42.235 49.6611 41.5047 49.3097C40.9082 49.0212 40.7743 49.0086 38.0233 49.0086C35.3576 49.0086 35.1263 49.0212 34.6394 49.2721ZM40.8352 51.38C41.103 51.6058 41.1273 51.7188 41.1638 53.124C41.2004 54.5669 41.2004 54.6297 40.9082 54.981L40.6039 55.3449L38.1694 55.3825L35.7471 55.4201L35.3576 55.0939L34.9802 54.7552V53.2621C34.9802 51.8317 34.9924 51.7439 35.2845 51.4553C35.5767 51.1416 35.5888 51.1416 38.0599 51.1416C40.3361 51.1416 40.5796 51.1667 40.8352 51.38Z" fill="black"/>
<path d="M33.6413 60.7653C32.9109 61.0413 32.6553 62.02 33.1909 62.5344C33.4587 62.7979 33.5804 62.8104 35.9906 62.8104C38.3399 62.8104 38.5225 62.7979 38.7537 62.5595C39.3015 61.9949 39.1554 61.1542 38.4494 60.8656C38.1329 60.7276 37.5121 60.6774 35.9297 60.69C34.7733 60.69 33.7387 60.7276 33.6413 60.7653Z" fill="black"/>
<path d="M41.8454 60.8029C41.176 61.0789 40.9934 61.9949 41.4924 62.4967C41.7846 62.8104 41.7968 62.8104 44.2921 62.8104C46.7875 62.8104 46.7997 62.8104 47.0918 62.4967C47.4813 62.1078 47.4813 61.5557 47.104 61.0915L46.8118 60.7402L44.4504 60.7151C43.1601 60.7025 41.9793 60.7402 41.8454 60.8029Z" fill="black"/>
<path d="M50.0988 60.8656C49.4293 61.1668 49.2954 62.0074 49.831 62.5595C50.0622 62.7979 50.2448 62.8104 52.6063 62.8104C55.1017 62.8104 55.1504 62.8104 55.406 62.5218C55.7833 62.1078 55.759 61.4303 55.3573 61.0413C55.053 60.7527 54.9921 60.7402 52.7767 60.7151C50.9995 60.69 50.4153 60.7151 50.0988 60.8656Z" fill="black"/>
<path d="M58.4002 60.8531C57.7794 61.1291 57.6455 62.0451 58.1446 62.5344C58.4124 62.7979 58.5341 62.8104 60.8956 62.8104C62.2954 62.8104 63.4518 62.7602 63.5857 62.685C63.7074 62.6222 63.8778 62.3713 63.9509 62.1329C64.1335 61.5557 63.8657 61.0162 63.3301 60.8154C62.758 60.6147 58.8749 60.6398 58.4002 60.8531Z" fill="black"/>
<path d="M66.8721 60.7653C66.1539 61.0538 65.9348 61.8694 66.3974 62.4842L66.6408 62.8104H69.1849C72.0332 62.8104 72.1793 62.7728 72.301 61.9196C72.3619 61.5557 72.3132 61.4052 72.0698 61.104L71.7654 60.7402L69.404 60.7151C68.1137 60.7025 66.9695 60.7151 66.8721 60.7653Z" fill="black"/>
<path d="M37.3537 67.5155C36.9642 67.9045 36.9642 68.4566 37.3416 68.9208C37.6337 69.2721 37.6581 69.2721 39.2526 69.3098C41.0907 69.36 41.5898 69.2972 41.9306 68.9459C42.2714 68.5946 42.2471 67.8292 41.8819 67.4779C41.6141 67.2144 41.4802 67.2019 39.6178 67.2019C37.6824 67.2019 37.6459 67.2144 37.3537 67.5155Z" fill="black"/>
<path d="M74.7234 67.5157C74.419 67.8168 74.419 67.8419 74.419 70.1505V72.4717H71.6924H68.9658L68.5884 72.798C68.1015 73.212 68.065 73.8394 68.5154 74.2911L68.8075 74.6047H72.3497H75.8919L76.1841 74.2911L76.4884 73.9899V70.9034V67.8168L76.1841 67.5157C75.9893 67.3024 75.758 67.202 75.4537 67.202C75.1494 67.202 74.9181 67.3024 74.7234 67.5157Z" fill="black"/>
<path d="M33.2153 71.7815C32.8867 72.1203 32.8136 72.7727 33.0692 73.1115C33.4101 73.5757 33.6779 73.6008 37.5365 73.6008C42.0769 73.6008 42.1621 73.5757 42.1621 72.4089C42.1621 72.1077 42.0769 71.9195 41.8456 71.7313C41.5291 71.4804 41.3831 71.4678 37.5122 71.4678H33.5075L33.2153 71.7815Z" fill="black"/>
</svg>
